<?xml version="1.0" standalone="no"?>
<!DOCTYPE svg PUBLIC "-//W3C//DTD SVG 20010904//EN"
 "http://www.w3.org/TR/2001/REC-SVG-20010904/DTD/svg10.dtd">
<svg version="1.0" xmlns="http://www.w3.org/2000/svg"
 width="3072.000000pt" height="3072.000000pt" viewBox="0 0 3072.000000 3072.000000"
 preserveAspectRatio="xMidYMid meet">

<g transform="translate(0.000000,3072.000000) scale(0.100000,-0.100000)"
fill="#000000" stroke="none">
<path d="M10625 27273 c-29 -6 -64 -23 -112 -55 -23 -15 -44 -28 -47 -28 -6 0
-268 -161 -276 -170 -7 -8 -118 -79 -171 -111 -61 -35 -216 -89 -259 -89 -48
0 -27 -13 26 -16 24 -2 51 -10 60 -18 24 -24 75 -29 124 -12 25 9 53 16 63 16
9 0 25 8 35 18 44 43 123 104 129 99 7 -7 -200 -212 -237 -235 -14 -9 -42 -29
-63 -45 -45 -35 -59 -29 -29 13 38 51 20 57 -28 9 l-31 -31 -29 31 c-17 17
-34 31 -40 31 -5 0 -13 7 -18 17 -5 9 -18 17 -28 18 -11 0 -24 4 -29 7 -6 3
-32 8 -60 12 -27 4 -67 14 -88 23 -36 16 -43 16 -102 0 -35 -9 -83 -17 -107
-17 -35 0 -45 4 -53 23 -7 15 -18 21 -33 20 -16 -2 -22 2 -22 18 0 11 -5 30
-11 42 -9 16 -9 22 0 25 22 7 10 21 -24 28 -45 8 -34 27 14 22 43 -5 108 26
75 36 -11 3 -2 3 19 0 29 -4 37 -2 31 7 -5 9 3 11 34 6 23 -3 42 -3 42 -1 0 2
-17 11 -37 20 -43 18 -108 14 -208 -13 -77 -20 -215 -20 -282 0 -28 8 -54 13
-58 9 -3 -4 -10 0 -14 7 -13 21 -96 32 -151 20 -28 -6 -50 -15 -50 -20 0 -5
-5 -9 -11 -9 -11 0 -95 -55 -117 -77 -7 -7 -21 -18 -30 -25 -17 -13 -35 -34
-95 -111 -60 -76 -78 -106 -130 -212 -59 -118 -125 -214 -193 -282 -51 -50
-46 -54 16 -13 39 25 46 27 53 14 6 -10 5 -20 -2 -27 -6 -6 -11 -23 -11 -37 0
-14 -10 -34 -21 -44 -18 -15 -26 -16 -46 -7 -14 7 -21 16 -17 23 5 8 2 9 -10
5 -10 -4 -19 -7 -22 -7 -2 0 -1 -6 2 -13 2 -7 -3 -13 -13 -14 -10 -1 -29 -4
-42 -9 -20 -6 -23 -4 -18 9 8 21 -20 11 -49 -17 -12 -12 -47 -46 -78 -76 -58
-56 -117 -138 -176 -245 -18 -33 -47 -80 -65 -105 -17 -25 -53 -84 -78 -132
-36 -66 -59 -95 -97 -123 -27 -20 -64 -55 -82 -78 -18 -23 -36 -43 -40 -45 -5
-2 -8 -9 -8 -16 0 -7 -9 -21 -20 -31 -21 -19 -28 -51 -9 -40 6 4 8 9 6 11 -2
3 9 19 25 36 24 26 31 29 39 17 5 -8 8 -21 8 -29 -1 -11 -3 -10 -6 3 -2 9 -9
15 -14 12 -13 -9 -11 -45 3 -45 9 0 9 -3 0 -12 -7 -7 -12 -18 -12 -26 0 -10 7
-9 30 4 16 10 31 16 34 13 8 -9 -9 -74 -21 -74 -6 0 -55 -42 -108 -92 -53 -51
-100 -93 -105 -93 -6 0 -10 -4 -10 -10 0 -5 -13 -10 -30 -10 -23 0 -30 5 -30
19 0 11 9 23 20 26 22 7 27 31 8 38 -10 4 -10 6 0 6 6 1 12 5 12 10 0 5 -15 8
-32 7 -19 -2 -32 -7 -31 -14 2 -6 -3 -9 -11 -6 -8 3 -22 -3 -32 -13 -11 -10
-39 -32 -64 -48 -25 -17 -47 -33 -50 -36 -3 -3 -26 -21 -51 -40 -45 -33 -207
-164 -260 -211 -15 -13 -49 -41 -75 -63 -63 -53 -181 -159 -308 -281 -19 -18
-180 -157 -236 -204 -30 -25 -68 -58 -85 -74 -16 -16 -47 -39 -67 -52 -21 -14
-38 -28 -38 -32 0 -4 -17 -18 -37 -32 -20 -14 -48 -36 -63 -49 -14 -13 -35
-30 -47 -38 -13 -8 -20 -20 -16 -26 4 -6 1 -7 -6 -2 -8 4 -23 -2 -39 -17 -37
-32 -89 -68 -101 -68 -5 0 -11 -6 -14 -14 -3 -8 -17 -20 -30 -28 -33 -18 -179
-119 -195 -135 -7 -7 -17 -13 -21 -13 -4 0 -16 -8 -27 -19 -11 -10 -30 -23
-41 -30 -25 -13 -336 -254 -408 -316 -27 -24 -86 -73 -130 -110 -196 -165
-591 -546 -777 -749 -35 -38 -79 -86 -98 -106 -43 -45 -141 -164 -201 -243
-83 -111 -149 -202 -156 -217 -4 -8 -32 -53 -63 -100 -32 -47 -72 -112 -89
-145 -18 -33 -37 -64 -41 -70 -4 -5 -34 -59 -66 -120 -31 -60 -70 -135 -87
-165 -16 -30 -48 -89 -70 -130 -22 -41 -58 -104 -80 -140 -22 -36 -51 -85 -65
-110 -14 -25 -35 -58 -47 -75 -12 -16 -36 -55 -52 -85 -45 -83 -254 -410 -309
-482 -26 -34 -83 -94 -128 -133 -142 -124 -192 -231 -184 -389 5 -93 43 -222
91 -306 11 -19 34 -60 50 -90 17 -30 33 -57 37 -60 3 -3 32 -50 65 -105 139
-237 260 -417 359 -532 94 -108 142 -161 217 -238 102 -105 396 -387 436 -418
15 -12 35 -29 43 -37 22 -20 149 -134 180 -160 14 -11 66 -58 115 -104 50 -46
146 -134 215 -197 135 -122 347 -332 640 -634 324 -333 497 -476 810 -673 52
-33 129 -74 255 -135 160 -79 169 -83 330 -145 358 -139 577 -218 935 -334
l165 -53 -4 -83 c-3 -68 0 -86 14 -102 23 -25 65 -38 144 -45 126 -10 319 -54
378 -85 31 -17 64 -30 74 -30 10 0 24 -7 32 -15 8 -8 43 -29 78 -46 77 -39 90
-48 199 -149 72 -66 88 -87 106 -136 27 -73 119 -364 133 -419 22 -90 50 -327
50 -425 0 -163 34 -530 71 -750 27 -163 51 -591 39 -712 -16 -177 -58 -649
-69 -773 -22 -271 -88 -1242 -110 -1640 -11 -186 -24 -343 -40 -455 -5 -36
-14 -117 -20 -180 -44 -453 -104 -902 -259 -1935 -16 -110 -35 -236 -41 -280
-6 -44 -15 -102 -20 -130 -5 -27 -14 -81 -20 -120 -6 -38 -17 -110 -26 -160
-8 -49 -19 -117 -24 -150 -5 -33 -14 -87 -20 -120 -5 -33 -17 -107 -25 -164
-8 -56 -22 -144 -31 -195 -9 -50 -18 -104 -20 -121 -3 -16 -13 -84 -24 -150
-65 -393 -81 -494 -89 -530 -5 -22 -18 -83 -29 -135 -11 -52 -22 -106 -25
-120 -2 -14 -21 -95 -40 -180 -53 -230 -105 -483 -138 -680 -43 -257 -89 -465
-115 -525 -7 -16 -36 -91 -65 -165 -82 -216 -119 -311 -144 -370 -12 -30 -42
-107 -65 -170 -24 -63 -58 -148 -77 -189 -27 -60 -31 -77 -21 -87 47 -42 450
-303 747 -481 929 -561 1949 -1035 2963 -1378 2246 -761 4546 -994 6903 -699
395 49 927 139 1212 205 l93 21 -19 27 c-10 14 -22 36 -25 49 -4 12 -16 27
-27 33 -12 6 -18 16 -16 23 3 7 -3 17 -13 24 -11 6 -20 29 -24 59 -10 71 -25
140 -46 208 -34 111 -76 320 -130 645 -17 103 -42 203 -56 230 -7 14 -25 79
-39 145 -15 66 -33 136 -40 155 -8 19 -28 91 -45 160 -18 69 -40 152 -51 184
-20 62 -25 116 -10 116 12 0 34 290 26 357 -10 91 -31 188 -71 323 -32 113
-59 216 -94 367 -8 35 -16 51 -23 46 -7 -3 -9 -3 -6 1 4 4 0 35 -7 69 -25 118
-20 159 42 337 74 213 90 283 99 455 7 108 -5 293 -22 363 -4 15 -1 22 7 20
21 -5 33 44 135 562 8 41 22 120 30 175 9 55 22 141 30 190 13 75 31 294 70
835 24 321 68 665 105 810 6 25 15 65 19 90 5 25 16 88 25 140 18 104 78 421
102 540 8 41 22 127 29 190 8 63 34 246 59 405 42 283 45 293 93 407 28 64 54
129 58 145 3 15 10 30 14 33 4 3 26 59 49 125 24 66 50 139 58 162 9 24 43 73
78 110 64 69 183 211 246 293 19 25 40 52 47 60 42 48 86 108 147 199 38 57
77 106 85 109 33 14 177 96 207 119 17 13 36 23 42 23 6 0 12 4 14 8 2 5 26
23 53 42 28 18 52 37 55 40 3 4 34 21 70 39 62 31 68 32 150 26 82 -6 87 -6
150 27 36 18 70 43 76 56 7 13 40 37 80 56 38 18 78 44 90 57 34 39 79 111 91
149 27 78 74 276 86 358 11 80 14 87 39 96 18 6 45 5 82 -4 45 -11 67 -11 110
-1 l55 12 36 -39 c51 -57 82 -68 155 -52 33 7 60 17 60 21 0 5 5 9 11 9 6 0
22 9 36 20 27 21 78 27 88 11 3 -5 21 -15 39 -21 19 -6 72 -36 118 -67 117
-79 168 -99 293 -117 197 -29 238 -38 360 -79 120 -40 120 -41 299 -44 139 -2
195 -7 250 -22 87 -24 261 -58 341 -66 33 -3 98 -12 145 -20 110 -18 190 -23
505 -31 295 -8 538 4 885 41 124 14 268 29 320 35 215 23 676 51 990 60 184 5
376 14 425 19 50 6 155 15 235 21 229 16 553 61 775 107 92 19 140 27 325 58
203 33 420 75 445 85 11 4 67 25 125 45 58 21 125 49 150 64 25 14 62 35 82
46 60 32 195 144 255 209 30 34 79 98 109 143 50 77 124 222 124 246 0 6 6 18
14 26 25 30 50 281 26 266 -5 -3 -10 3 -10 14 0 12 5 21 11 21 8 0 9 4 0 13
-6 8 -8 16 -5 20 3 3 -3 3 -15 0 -19 -5 -21 -1 -21 31 0 21 -5 46 -11 57 -6
11 -11 33 -11 48 -1 23 -5 27 -21 23 -16 -4 -18 -1 -12 17 4 15 1 29 -11 42
-9 10 -14 19 -10 19 4 0 1 9 -7 21 -15 21 -12 59 4 59 5 0 9 18 9 40 0 22 -5
40 -10 40 -6 0 -5 8 2 21 11 17 10 22 -4 30 -11 6 -18 22 -18 42 0 44 -10 78
-21 71 -13 -8 -11 40 2 53 16 16 3 32 -21 26 -24 -6 -25 0 -4 21 14 15 14 17
-1 32 -15 15 -15 18 0 41 15 23 15 26 -5 43 -20 17 -20 19 -3 36 17 16 18 16
24 -7 7 -23 7 -23 8 4 1 20 -6 30 -24 39 -15 7 -24 17 -21 25 7 18 -4 43 -19
43 -6 0 -20 10 -31 21 -19 21 -19 22 4 15 18 -6 22 -3 22 13 0 11 -4 22 -9 25
-5 3 -11 15 -14 27 -4 15 -2 19 9 15 8 -3 13 -2 9 3 -3 5 0 11 7 13 7 3 9 11
4 24 -8 19 -8 19 -16 -1 -8 -19 -9 -19 -9 3 -1 16 -7 22 -25 22 -29 0 -46 20
-19 21 15 0 14 2 -4 11 -13 6 -23 18 -23 25 0 19 35 64 44 56 3 -3 6 1 6 9 0
20 -40 31 -57 16 -10 -8 -13 -6 -13 6 0 9 5 16 10 16 24 0 7 20 -17 21 -28 0
-28 1 -5 11 24 12 28 23 12 33 -5 3 -10 13 -10 21 0 11 6 13 20 9 14 -5 20 -2
20 10 0 9 -4 13 -10 10 -5 -3 -10 -1 -10 4 0 6 -7 11 -15 11 -8 0 -15 -7 -15
-15 0 -8 -4 -15 -10 -15 -5 0 -10 8 -10 18 0 10 -5 23 -12 30 -17 17 -2 27 17
12 20 -16 29 -8 20 20 -4 12 -13 19 -23 18 -11 -2 -18 5 -20 18 -2 16 2 22 15
20 10 0 21 -5 25 -11 4 -6 8 -2 8 8 0 20 -22 47 -38 47 -6 0 -13 -7 -16 -16
-3 -8 -11 -12 -17 -9 -7 5 -5 13 6 25 9 10 13 24 9 35 -6 15 -3 17 14 13 12
-4 22 -5 22 -3 0 11 -28 54 -33 49 -3 -3 -11 4 -17 17 -10 19 -10 24 4 34 17
13 23 41 7 30 -9 -5 -91 32 -91 42 0 2 17 3 37 1 29 -2 38 1 41 15 2 9 -2 17
-8 17 -7 0 -10 -7 -6 -15 3 -8 1 -15 -4 -15 -6 0 -10 7 -10 15 0 9 -7 18 -15
21 -8 4 -15 14 -15 23 0 14 2 14 10 1 5 -8 12 -11 17 -7 4 4 2 17 -5 27 -17
27 -15 35 4 19 14 -11 15 -10 12 9 -1 13 -6 21 -9 20 -13 -6 -49 35 -49 54 0
11 5 16 10 13 13 -8 12 -5 -1 34 -8 24 -8 35 1 46 9 11 9 15 1 15 -6 0 -17 11
-23 25 -12 27 -33 33 -42 13 -3 -7 -3 -3 0 10 3 12 1 22 -5 22 -6 0 -11 9 -11
20 0 12 -7 20 -17 20 -17 1 -17 1 -1 13 9 7 20 26 23 43 5 22 4 26 -4 14 -10
-13 -12 -13 -21 0 -5 8 -13 30 -16 48 -5 26 -2 38 17 58 20 22 22 28 10 45 -7
12 -11 42 -10 67 3 37 0 48 -13 50 -9 2 -20 17 -23 34 -5 23 -9 27 -16 17 -6
-10 -9 -11 -9 -1 0 6 -9 12 -20 12 -17 0 -20 7 -20 40 0 29 4 40 15 40 20 0
19 27 -1 47 -13 14 -17 14 -25 2 -5 -8 -9 -17 -9 -21 0 -15 -20 -8 -20 7 0 11
-11 15 -40 15 -38 0 -49 8 -32 24 4 4 7 11 8 14 0 4 9 22 20 39 19 33 44 44
44 20 0 -8 6 -14 13 -14 7 0 13 8 13 18 0 9 -6 15 -13 12 -7 -3 -13 2 -13 10
0 31 -23 67 -42 67 -17 0 -19 5 -12 33 4 17 7 53 6 80 -2 35 2 47 13 47 9 0
12 6 8 16 -3 9 -13 14 -24 11 -31 -8 -42 56 -11 68 16 6 16 7 0 19 -19 14 -24
32 -9 38 4 2 5 12 0 23 -6 17 -8 17 -8 3 -1 -10 -5 -18 -11 -18 -5 0 -10 -18
-10 -40 0 -33 -3 -40 -20 -40 -19 0 -20 4 -14 118 4 67 12 120 18 124 8 5 7
14 -3 30 -8 12 -16 43 -18 68 -2 25 -8 47 -13 48 -6 2 -10 14 -10 27 0 13 -5
27 -11 31 -7 4 -9 0 -5 -14 4 -11 3 -23 -1 -25 -5 -3 -8 34 -8 81 0 88 -17
152 -42 152 -6 0 -9 8 -6 19 3 13 -2 23 -17 31 -17 9 -21 18 -17 38 4 19 -1
34 -16 50 -11 12 -16 22 -10 22 6 0 9 9 6 20 -4 16 -2 19 11 14 17 -6 22 19
10 50 -9 23 -27 20 -19 -3 5 -16 1 -19 -15 -18 -17 1 -20 6 -15 29 5 19 3 28
-5 28 -8 0 -11 10 -7 29 4 21 1 33 -12 46 -24 21 -34 56 -15 48 22 -8 17 25
-6 37 -16 8 -19 18 -15 46 4 31 2 34 -10 24 -13 -11 -15 -8 -15 18 0 17 -6 33
-12 35 -10 4 -10 6 0 6 17 1 15 30 -2 37 -8 3 -16 14 -19 25 -3 11 -14 19 -26
19 -12 0 -21 5 -21 10 0 6 -7 10 -15 10 -19 0 -20 29 0 36 12 5 12 10 -3 32
-9 15 -21 30 -27 34 -5 4 -10 13 -10 20 -1 7 -6 12 -13 11 -8 -2 -12 12 -12
42 0 38 2 43 18 38 16 -6 16 -5 0 13 -9 10 -18 26 -20 34 -2 8 -16 23 -32 33
-35 22 -46 12 -46 -45 0 -27 -4 -38 -15 -38 -11 0 -15 11 -15 40 0 29 4 40 15
40 9 0 15 9 15 25 0 14 4 25 9 25 16 0 24 41 11 54 -10 8 -12 7 -7 -5 3 -9 1
-22 -4 -30 -6 -10 -9 -10 -9 -1 0 6 -7 12 -16 12 -9 0 -12 5 -8 13 6 10 4 10
-7 0 -7 -7 -21 -13 -31 -13 -14 0 -18 8 -17 33 0 17 3 26 6 20 2 -7 11 -13 19
-13 9 0 12 -5 8 -12 -4 -7 -3 -8 4 -4 14 9 13 79 -2 88 -22 15 -29 8 -11 -12
22 -25 2 -27 -24 -2 -11 9 -27 23 -36 31 -11 9 -15 23 -12 39 6 32 -1 52 -18
52 -7 0 -15 13 -18 29 -9 45 -36 71 -74 71 -32 0 -33 1 -33 40 l0 40 -45 0
c-44 0 -45 1 -45 33 0 47 -10 77 -26 77 -8 0 -14 10 -14 25 0 15 -6 25 -14 25
-11 0 -15 11 -13 40 1 25 6 40 14 40 7 0 13 7 13 15 0 8 7 15 16 15 8 0 13 4
10 8 -2 4 8 9 24 10 20 2 30 -3 32 -15 3 -10 6 -2 9 17 4 35 4 35 -27 32 -31
-4 -32 -3 -36 45 -5 49 12 79 38 69 8 -3 9 2 0 19 -9 19 -13 21 -19 9 -11 -19
-37 -18 -37 1 0 8 4 15 9 15 5 0 7 9 4 20 -11 40 -21 19 -18 -35 2 -30 0 -57
-4 -59 -4 -3 -20 1 -34 9 -32 16 -36 16 -59 4 -15 -8 -18 -6 -18 11 0 32 18
60 35 54 12 -5 15 3 15 39 0 41 2 45 28 50 16 3 33 0 41 -8 12 -12 11 -13 -7
-8 -19 5 -22 1 -21 -23 l1 -29 8 25 c4 14 8 19 9 13 1 -18 31 -16 31 1 0 8 -7
22 -16 30 -8 9 -13 20 -9 25 3 6 -13 8 -40 6 -37 -3 -48 0 -58 16 -7 11 -23
19 -39 19 -27 0 -28 2 -28 49 0 31 -5 53 -15 61 -9 7 -13 21 -10 31 4 11 1 19
-5 19 -7 0 -10 7 -6 15 4 11 -1 15 -19 15 -16 0 -25 -6 -25 -15 0 -8 -7 -15
-15 -15 -8 0 -15 9 -15 19 0 11 -5 23 -10 26 -6 4 -8 10 -5 15 3 5 -15 12 -40
15 -25 4 -45 11 -45 14 0 4 -7 8 -15 8 -8 0 -15 -4 -15 -9 0 -4 -4 -8 -10 -8
-5 0 -10 21 -10 48 0 58 -11 76 -38 68 -14 -5 -22 -17 -24 -39 l-3 -32 -17 38
c-10 20 -24 40 -33 43 -8 4 -20 15 -26 25 -8 15 -6 17 7 12 12 -4 15 -1 12 13
-4 23 -84 38 -107 21 -10 -9 -16 -7 -26 6 -7 9 -15 17 -18 17 -7 0 -23 -63
-26 -103 0 -10 -6 -15 -11 -12 -6 3 -7 17 -4 31 6 22 3 24 -30 24 -24 0 -36 5
-36 14 0 7 -15 17 -32 20 l-33 7 24 19 23 20 -25 0 c-27 0 -84 45 -79 62 1 6
-4 16 -13 22 -20 14 -12 57 15 81 16 15 24 15 52 6 22 -8 34 -8 36 -1 2 5 10
10 18 10 8 0 14 7 14 15 0 13 -3 13 -20 3 -25 -16 -41 0 -16 17 10 8 15 18 11
24 -3 6 1 11 9 11 9 0 16 7 16 15 0 8 7 15 15 15 8 0 15 5 15 10 0 6 -7 13
-15 16 -17 7 -21 34 -5 34 6 0 10 7 10 15 0 18 -4 19 -38 1 -39 -20 -78 -24
-74 -7 1 7 -5 20 -15 28 -17 14 -17 14 0 9 21 -7 49 3 41 15 -3 5 -17 9 -31 9
-14 0 -31 8 -38 17 -11 15 -14 15 -35 -5 -13 -12 -24 -21 -25 -19 -1 1 -5 19
-8 40 -6 37 -5 37 28 37 19 0 45 4 59 10 39 14 180 30 287 31 89 2 176 -14
190 -34 3 -4 15 -9 27 -10 27 -2 71 -86 103 -197 7 -25 16 -49 19 -55 4 -5 17
-43 30 -82 12 -40 25 -73 29 -73 10 0 94 90 113 120 56 93 72 215 43 338 -13
56 -90 257 -192 503 -42 100 -98 183 -118 175 -9 -3 -12 0 -9 8 3 8 1 16 -4
20 -5 3 -8 -8 -7 -24 1 -23 -2 -30 -17 -30 -10 0 -18 -7 -18 -15 0 -8 4 -15 9
-15 14 0 21 -42 10 -62 -11 -21 6 -53 22 -42 5 3 9 -7 9 -21 0 -17 4 -24 12
-19 7 5 9 2 6 -8 -4 -8 2 -20 13 -26 10 -7 19 -21 19 -33 0 -16 -4 -19 -21
-14 -18 6 -20 4 -14 -14 4 -15 2 -21 -8 -21 -9 0 -14 11 -14 31 0 17 -4 34
-10 37 -14 9 -43 67 -43 86 0 9 -13 22 -30 31 -28 14 -35 26 -31 49 1 5 -5 6
-14 3 -10 -4 -20 3 -30 22 -14 27 -40 46 -59 42 -17 -4 -46 33 -46 60 0 15 -4
29 -9 31 -5 2 -11 12 -13 23 -1 10 -11 27 -20 37 -10 10 -15 25 -12 35 5 15 4
16 -5 3 -9 -13 -14 -11 -38 14 l-28 28 25 -7 25 -7 -25 24 c-14 13 -28 23 -32
21 -9 -5 -58 27 -58 37 0 5 10 6 22 2 14 -3 19 -2 14 6 -4 7 -13 12 -21 12 -7
0 -27 11 -43 25 -24 20 -32 22 -41 12 -13 -16 14 -61 31 -51 7 5 9 1 5 -9 -4
-11 0 -17 14 -19 11 -2 20 -7 19 -13 0 -6 -28 -8 -68 -7 -76 4 -169 -18 -215
-50 -16 -11 -31 -18 -34 -15 -2 3 9 13 26 22 27 14 34 25 30 53 -1 4 -5 6 -10
4 -5 -1 -12 5 -15 13 -4 8 -15 15 -25 15 -10 0 -19 6 -19 13 0 24 -96 108
-133 117 -12 3 -22 12 -22 20 0 8 -15 21 -32 29 -18 8 -35 23 -39 33 -3 10
-15 23 -26 29 -17 9 -23 8 -30 -5 -5 -9 -13 -16 -18 -16 -9 0 -23 35 -24 60
-1 11 -12 14 -46 11 -25 -1 -46 -7 -48 -12 -5 -13 -19 -11 -19 4 0 6 -2 18 -4
26 -2 7 2 16 9 18 6 3 12 -3 12 -12 0 -9 5 -13 10 -10 6 3 10 15 10 26 0 12 7
19 20 19 23 0 25 17 5 44 -21 28 -19 36 10 36 16 0 25 6 25 15 0 8 -6 15 -14
15 -13 0 -26 20 -26 41 0 5 9 9 20 9 19 0 19 1 -2 35 -11 20 -18 38 -15 42 4
3 26 5 51 5 l45 -1 -2 42 c-1 23 -7 44 -14 47 -7 3 -29 30 -50 60 -38 55 -39
55 -95 58 -55 3 -57 2 -61 -25 -3 -23 -4 -21 -6 10 0 20 3 37 7 37 5 0 7 14 4
30 -3 18 0 30 7 30 6 0 11 7 11 15 0 8 -4 15 -10 15 -5 0 -10 7 -10 15 0 12
-16 15 -80 15 -53 0 -80 4 -80 11 0 7 -8 19 -18 28 -11 9 -27 33 -37 54 -9 20
-21 37 -26 37 -6 0 -25 16 -45 35 -19 19 -30 35 -24 35 6 0 -4 16 -21 35 -35
38 -53 43 -67 20 -14 -25 -64 -2 -60 27 2 18 -3 24 -20 26 -21 3 -40 31 -48
70 -3 17 -64 73 -73 68 -4 -3 -12 4 -19 14 -7 12 -8 21 -2 25 14 9 12 25 -2
25 -16 0 -39 48 -27 56 5 3 9 16 9 30 0 20 -5 24 -32 25 -18 0 -42 5 -53 10
-14 6 5 8 56 4 80 -6 109 -1 109 19 0 20 106 61 116 45 3 -5 12 -9 20 -9 11 0
9 9 -8 45 -13 24 -27 45 -31 45 -4 0 -3 -9 3 -21 7 -11 9 -23 7 -25 -7 -7 -53
41 -61 63 -4 13 -1 11 12 -6 17 -22 19 -22 26 -5 4 11 1 21 -9 26 -8 5 -15 17
-15 26 -1 19 -50 84 -50 65 0 -6 5 -15 10 -18 12 -8 13 -25 1 -25 -5 0 -14 21
-20 48 -13 52 -37 98 -27 50 8 -36 -4 -35 -29 2 -13 19 -22 25 -27 17 -8 -13
-78 50 -78 70 0 7 -12 15 -27 19 -16 4 -33 12 -39 20 -6 7 -29 15 -52 16 -23
2 -42 6 -42 9 0 3 -18 14 -40 24 -24 11 -40 25 -40 35 0 21 -36 33 -62 19 -14
-8 -18 -6 -18 8 0 19 -56 42 -102 44 -22 0 -22 1 -3 8 11 5 -9 6 -47 3 -64 -4
-68 -3 -68 16 0 11 -4 24 -10 27 -18 11 -10 34 13 37 14 2 -1 9 -40 19 -35 8
-64 12 -65 9 -5 -12 -58 -21 -58 -10 0 5 9 10 19 10 44 0 28 19 -21 25 -29 4
-56 12 -60 18 -3 6 -62 11 -143 13 -76 2 -151 8 -169 13 -59 19 -223 11 -238
-12 -3 -6 -30 -10 -58 -8 -43 2 -56 7 -75 29 -47 55 -86 92 -98 92 -6 0 -21 7
-31 15 -43 32 -128 48 -253 47 -103 -2 -123 1 -123 13 0 9 -10 15 -26 15 -16
0 -24 5 -22 12 3 7 -4 21 -14 32 -10 11 -18 26 -18 33 0 7 -4 13 -9 13 -11 0
-41 56 -41 75 0 7 -7 15 -15 19 -8 3 -14 16 -14 28 1 13 -5 37 -12 54 -10 26
-10 34 2 47 12 13 15 13 26 -7 l12 -21 1 22 c0 16 4 21 16 16 13 -5 13 -7 2
-14 -9 -6 -7 -9 9 -9 14 0 25 -10 34 -32 11 -30 13 -31 16 -11 l4 23 24 -26
c13 -14 26 -25 29 -25 20 2 66 -13 66 -21 0 -5 5 -6 12 -2 6 4 8 3 4 -4 -8
-13 20 -42 42 -42 10 0 28 -7 40 -16 20 -14 22 -14 22 5 0 10 3 26 6 34 3 10
-3 20 -17 27 -19 11 -21 10 -16 -4 4 -11 1 -16 -9 -16 -12 0 -15 6 -10 24 5
19 -1 29 -27 49 -17 14 -50 41 -72 61 -22 20 -58 49 -80 64 -22 15 -43 31 -46
36 -4 5 -12 5 -19 1 -7 -5 -11 -4 -8 1 3 5 -1 16 -10 24 -14 13 -15 12 -9 -3
6 -15 4 -16 -13 -7 -11 6 -20 15 -20 20 0 5 -11 21 -25 36 -19 20 -24 22 -19
9 7 -17 6 -18 -8 -5 -9 8 -14 18 -12 22 5 7 -35 48 -47 48 -4 0 -10 -6 -12
-12 -3 -7 -6 -3 -6 8 -1 13 -9 24 -21 27 -14 4 -18 11 -14 24 5 15 4 16 -5 3
-10 -13 -14 -12 -30 7 -10 12 -32 23 -52 25 -24 2 -34 8 -34 20 0 9 -4 20 -9
25 -5 5 -6 2 -2 -7 5 -10 3 -9 -6 2 -8 9 -26 20 -41 23 -15 4 -27 13 -27 20 0
7 -13 19 -30 27 -16 7 -30 18 -30 24 0 5 -9 20 -20 32 -11 12 -21 29 -23 39
-4 29 -17 43 -38 43 -11 0 -18 4 -15 9 3 5 -2 12 -11 15 -13 5 -14 9 -5 15 9
5 -16 35 -80 98 -51 50 -117 116 -147 147 -29 31 -57 53 -62 50 -5 -3 -9 1 -9
9 0 8 -15 24 -32 36 -57 35 -207 165 -208 179 0 7 -4 10 -10 7 -5 -3 -20 -1
-32 6 -12 7 -36 16 -53 20 -16 4 -41 11 -54 15 -17 5 -22 4 -17 -4 4 -8 2 -10
-7 -6 -19 7 -74 -60 -87 -106 -14 -50 -12 -111 4 -158 13 -37 79 -150 95 -162
3 -3 51 -72 106 -155 55 -82 124 -176 152 -207 29 -32 53 -62 53 -67 0 -5 17
-31 38 -58 50 -63 56 -74 40 -68 -8 3 -21 15 -29 27 -28 41 -51 60 -69 55 -13
-3 -20 2 -25 20 -4 18 -10 23 -25 18 -14 -4 -31 6 -65 40 -25 25 -45 52 -45
59 0 6 -18 23 -41 36 -22 14 -52 35 -65 46 -16 14 -32 20 -46 16 -16 -4 -19
-2 -13 8 5 8 -4 6 -22 -5 -60 -35 -86 -135 -60 -226 32 -109 195 -365 289
-455 108 -103 141 -138 212 -222 37 -45 122 -135 188 -200 67 -64 154 -157
195 -207 42 -49 121 -137 177 -195 230 -239 356 -388 356 -421 0 -20 18 -4 67
61 29 38 64 73 87 84 36 18 38 18 51 0 21 -28 30 -84 16 -105 -6 -11 -11 -25
-11 -33 0 -8 -6 -16 -12 -19 -7 -2 -10 -8 -6 -12 5 -5 16 -1 26 8 22 20 42 22
42 4 0 -21 -42 -55 -47 -39 -5 14 -33 17 -33 3 0 -19 -36 -20 -90 -2 -51 18
-56 18 -72 2 -9 -9 -20 -32 -23 -52 -5 -30 -2 -41 20 -68 28 -32 92 -71 119
-71 16 0 109 -165 164 -293 18 -42 52 -134 74 -205 36 -115 40 -138 43 -247 1
-66 -4 -165 -11 -220 -13 -100 -77 -359 -114 -458 -22 -58 -100 -157 -134
-170 -11 -5 -56 -3 -100 2 -43 6 -82 8 -87 6 -4 -3 -38 1 -74 10 -37 8 -78 15
-93 14 l-27 -1 26 -9 c20 -7 26 -15 22 -29 -3 -11 -9 -17 -14 -14 -5 3 -6 10
-3 16 5 7 1 9 -9 5 -10 -3 -17 -3 -17 2 0 4 -11 14 -25 21 -14 7 -25 18 -25
24 0 6 5 5 12 -2 7 -7 17 -12 23 -12 5 0 1 7 -9 15 -10 8 -22 12 -26 10 -4 -3
-13 2 -20 10 -7 8 -19 15 -27 15 -8 0 -39 16 -69 35 -110 71 -307 82 -403 24
-66 -40 -91 -135 -53 -202 24 -44 90 -124 135 -165 30 -28 37 -41 37 -73 0
-54 71 -213 112 -251 55 -50 152 -81 333 -108 128 -19 367 -60 405 -70 33 -9
216 -37 305 -47 47 -5 119 11 305 72 131 43 141 44 355 59 226 16 364 42 505
95 30 12 64 21 75 21 12 0 45 12 74 26 l53 27 30 -32 c40 -42 73 -55 111 -42
35 13 42 9 63 -32 16 -30 16 -31 -9 -53 -45 -38 -43 -60 12 -189 28 -65 51
-129 51 -141 0 -28 18 -72 40 -99 10 -11 34 -63 54 -115 70 -176 86 -200 137
-200 15 0 50 -16 79 -35 29 -19 58 -35 66 -35 23 0 56 -173 89 -460 16 -146
85 -611 121 -820 14 -80 38 -224 54 -320 16 -96 36 -213 44 -260 42 -238 50
-581 22 -900 -9 -96 -16 -272 -16 -391 0 -119 -4 -261 -9 -315 -28 -291 -35
-675 -13 -733 6 -19 10 -37 7 -39 -3 -3 -29 4 -58 16 -101 41 -179 63 -232 65
-29 1 -51 5 -49 8 2 4 -32 16 -76 27 -44 11 -80 16 -80 11 0 -5 11 -9 24 -9
14 0 28 -5 32 -11 5 -9 -9 -10 -52 -4 -32 4 -63 10 -69 13 -5 3 -19 6 -29 7
-35 0 -30 25 6 26 30 0 29 2 -17 14 -27 8 -51 14 -52 15 -2 0 -3 -4 -3 -9 0
-5 8 -12 18 -15 9 -3 -8 -2 -38 2 -30 3 -70 6 -87 6 -35 -1 -45 12 -15 19 13
3 11 6 -10 15 -27 11 -39 32 -18 32 23 0 6 18 -54 58 -42 27 -71 40 -83 36
-12 -4 -14 -3 -5 3 9 7 7 14 -10 29 -50 44 -150 115 -156 110 -3 -4 3 -12 13
-20 13 -9 15 -15 6 -20 -6 -4 -14 0 -17 8 -3 9 -12 16 -20 16 -7 0 -17 6 -21
13 -20 34 -78 64 -125 66 -11 1 -18 9 -18 21 0 17 5 19 28 14 l27 -6 -25 14
c-20 11 -27 12 -38 1 -7 -7 -19 -13 -25 -13 -7 0 -4 7 5 14 17 12 17 14 0 30
-10 9 -24 16 -31 16 -7 0 -19 7 -27 15 -9 8 -21 15 -27 14 -9 0 -8 -2 1 -6 6
-2 12 -11 12 -18 0 -7 16 -16 35 -19 47 -9 44 -23 -5 -23 -27 0 -40 4 -40 13
0 8 -11 16 -25 20 -14 3 -25 10 -25 15 0 5 -9 9 -20 9 -11 0 -20 5 -20 10 0
12 -26 14 -33 3 -2 -5 -2 -3 -1 4 2 7 -17 14 -49 18 -81 10 -119 26 -114 47 3
10 1 21 -4 24 -5 3 -8 0 -7 -8 2 -8 -9 -14 -31 -16 -21 -2 -31 0 -26 7 4 7 -6
11 -29 11 -19 0 -38 -4 -41 -10 -8 -13 -62 -13 -125 2 -32 7 -54 8 -58 2 -11
-15 -55 -37 -87 -44 -21 -4 -30 -12 -31 -25 0 -11 -4 -39 -8 -62 -7 -41 -10
-43 -42 -43 -19 0 -34 -4 -34 -9 0 -21 13 -41 26 -41 8 0 14 -7 14 -15 0 -8
-7 -15 -15 -15 -11 0 -15 -11 -15 -40 0 -34 -3 -40 -21 -40 -19 0 -21 5 -17
45 3 48 2 50 -22 35 -10 -6 -11 -10 -2 -10 7 0 12 -14 12 -35 0 -37 -9 -42
-39 -23 -11 7 -26 8 -37 3 -16 -8 -14 -10 14 -13 17 -2 32 -5 32 -7 0 -3 -8
-20 -17 -40 -12 -25 -23 -35 -40 -35 -20 0 -23 5 -23 40 0 38 -2 40 -31 40
-23 0 -41 -10 -70 -41 -38 -40 -41 -41 -59 -24 -13 12 -31 16 -62 13 -43 -3
-43 -3 -43 31 0 19 -6 36 -12 38 -7 3 -13 -2 -13 -10 0 -8 -9 -17 -20 -20 -27
-7 -25 -23 3 -33 18 -6 15 -8 -20 -11 -25 -3 -43 -9 -43 -16 0 -9 -13 -11 -40
-9 -44 4 -54 27 -24 56 14 14 13 17 -3 34 -14 15 -61 45 -91 58 -2 1 8 14 22
29 15 16 26 36 26 45 0 19 30 50 49 50 6 0 34 22 61 50 27 27 56 50 64 50 7 0
17 11 20 24 5 21 65 68 91 71 6 1 23 6 38 13 16 7 34 12 41 12 8 0 19 7 26 16
35 42 174 84 278 84 71 0 239 -31 297 -55 20 -9 39 -15 40 -13 11 11 -93 97
-145 121 -107 47 -229 74 -414 92 -133 13 -199 30 -216 55 -8 12 -188 70 -215
70 -13 0 -27 5 -30 11 -4 6 -13 8 -21 5 -8 -3 -14 -1 -14 3 0 12 -158 75 -241
96 -54 15 -141 31 -199 37 -20 2 -38 20 -33 34 5 16 -89 74 -150 91 -28 9 -63
23 -77 33 -22 15 -105 56 -270 132 -25 11 -94 40 -154 64 -59 24 -122 50 -140
58 -70 30 -94 39 -151 57 -33 11 -69 23 -80 29 -56 26 -312 103 -470 141 -22
5 -58 16 -80 23 -22 8 -76 22 -120 31 -44 9 -107 23 -141 30 -33 8 -101 21
-150 29 -49 9 -118 22 -154 29 -36 8 -92 17 -125 21 -174 19 -209 28 -242 59
-27 26 -41 30 -103 35 -75 5 -96 2 -317 -54 -73 -18 -224 -44 -335 -59 -112
-14 -223 -30 -248 -35 -25 -5 -87 -15 -139 -22 -89 -12 -94 -11 -110 8 -9 11
-39 25 -71 32 -78 16 -276 36 -294 29 -9 -4 -16 -1 -16 5 0 24 333 -9 413 -41
81 -32 92 -4 84 222 -8 214 -17 303 -28 285 -6 -8 -8 2 -8 27 1 35 2 37 9 15
8 -24 8 -24 9 5 2 71 -28 435 -37 451 -6 11 -7 27 -1 41 5 13 5 33 -1 47 -5
13 -11 75 -14 137 -10 191 -16 271 -26 334 -5 33 -14 124 -20 202 -5 78 -15
180 -21 225 -12 82 -12 85 14 140 15 31 27 63 27 71 0 8 24 29 53 45 28 16 99
65 157 108 58 44 160 106 225 139 66 33 126 65 133 72 7 7 26 20 43 30 46 27
353 424 411 531 17 31 37 64 44 72 7 9 47 85 89 170 41 85 80 163 86 174 6 10
19 44 29 75 10 31 30 88 45 126 25 66 33 85 76 180 9 22 22 56 27 75 6 19 20
60 32 90 26 70 115 414 140 545 17 88 38 335 33 390 0 11 -4 116 -7 232 -6
218 -24 345 -53 369 -7 6 -11 19 -7 28 4 9 1 16 -6 16 -8 0 -11 -9 -8 -25 7
-36 -18 -32 -31 5 -7 20 -7 29 0 24 6 -3 9 5 7 23 -2 18 1 27 9 26 7 -2 10 4
6 13 -4 11 -8 12 -13 4 -4 -7 -7 10 -6 36 1 27 -2 67 -7 89 -5 22 -9 47 -9 55
-1 8 -7 22 -14 31 -8 9 -13 27 -12 40 2 13 -3 24 -9 25 -7 1 -17 2 -23 3 -5 0
-10 6 -10 12 0 8 4 9 13 0 15 -12 27 -5 27 15 0 6 -8 11 -17 10 -19 -1 -43 38
-43 72 0 20 3 21 20 12 14 -7 20 -7 20 0 0 5 -3 10 -7 10 -5 0 -14 4 -22 9
-12 8 -12 12 -2 25 11 13 10 18 -3 31 -9 9 -16 25 -16 36 0 10 -14 47 -30 81
-21 44 -27 64 -18 69 8 5 3 17 -15 39 -15 17 -27 36 -27 41 0 5 -8 21 -17 36
-10 14 -18 35 -20 47 -1 12 -21 62 -44 111 -64 139 -73 158 -84 169 -5 6 -18
26 -28 44 -10 17 -31 46 -47 64 -16 18 -36 46 -45 63 -18 37 -40 65 -50 65 -4
0 -2 -7 5 -15 25 -31 0 -26 -44 8 -38 29 -43 37 -32 47 11 9 20 9 36 0 26 -14
36 -8 15 10 -8 7 -15 17 -15 22 0 10 -109 139 -178 211 -19 20 -42 37 -50 37
-12 0 -12 -3 -2 -15 7 -9 11 -18 8 -21 -3 -2 -13 7 -22 20 -11 18 -13 27 -4
32 8 5 6 10 -5 18 -25 19 -127 107 -187 162 -30 28 -67 61 -83 75 -34 31 -260
154 -307 167 -19 5 -77 26 -129 46 -51 20 -128 48 -170 62 -95 33 -105 37
-328 146 -101 48 -185 88 -187 88 -3 0 -37 15 -78 34 -86 39 -229 87 -348 115
-143 34 -370 152 -385 202 -4 11 -13 19 -21 19 -8 0 -14 5 -14 10 0 6 -11 10
-24 10 -14 0 -28 -4 -31 -10 -3 -5 -15 -10 -26 -10 -10 0 -19 -4 -19 -9 0 -15
-91 -53 -109 -45 -9 4 -24 6 -34 5 -10 -1 -25 3 -33 10 -13 10 -17 10 -25 -2
-8 -10 -9 -8 -4 8 3 12 -1 36 -10 53 -9 18 -14 34 -11 38 3 3 6 0 6 -6 0 -7 6
-12 14 -12 9 0 12 7 9 19 -3 10 0 22 6 25 6 4 11 16 11 26 0 10 9 22 20 25 32
10 24 27 -10 20 -25 -5 -30 -3 -31 12 0 10 -3 13 -6 5 -7 -18 -23 -4 -17 16 5
15 5 15 -6 -1 -6 -9 -8 -22 -5 -27 8 -12 -15 -13 -34 -1 -11 7 -11 15 -2 41
13 39 13 40 3 40 -5 0 -17 -18 -27 -40 -10 -22 -22 -40 -27 -40 -4 0 -8 -7 -8
-15 0 -8 -4 -15 -8 -15 -4 0 0 41 10 91 17 83 17 93 3 109 -9 10 -15 36 -15
70 0 94 -9 48 -15 -72 -2 -64 -10 -129 -16 -145 -7 -15 -12 -31 -11 -35 1 -5
-7 -8 -18 -8 -11 0 -19 -3 -17 -8 2 -7 -6 -12 -22 -12 -5 0 -7 18 -4 40 5 39
-7 54 -23 29 -4 -7 -21 -9 -40 -6 -19 3 -36 1 -39 -4 -4 -5 -1 -9 6 -9 8 0 8
-4 -1 -15 -7 -8 -21 -15 -32 -15 -16 0 -19 5 -14 23 4 15 -1 27 -15 38 -17 13
-24 39 -39 140 -10 68 -17 147 -15 174 1 28 -4 62 -11 77 -12 23 -12 29 1 41
13 13 13 16 -1 21 -22 8 -24 8 -21 -6 1 -6 -5 -13 -14 -15 -17 -4 -43 46 -54
104 -8 42 -31 50 -39 12 -6 -34 -22 -38 -31 -9 -3 11 -13 20 -21 20 -16 0 -19
-16 -4 -25 5 -3 9 -45 9 -93 0 -77 -2 -84 -13 -63 l-13 24 -5 -33 c-3 -19 3
-53 14 -82 10 -27 32 -109 49 -181 16 -73 32 -142 36 -154 5 -20 2 -23 -26
-23 -24 0 -45 12 -84 48 -28 26 -71 65 -94 86 -24 22 -57 48 -75 59 l-33 19
35 -39 c19 -22 47 -47 63 -56 15 -9 27 -22 27 -29 -1 -9 -5 -7 -14 5 -16 21
-27 22 -20 2 3 -7 25 -21 48 -30 23 -9 48 -25 55 -37 14 -23 7 -38 -11 -20 -7
7 -20 12 -29 12 -9 0 -22 6 -28 14 -13 15 -83 40 -143 51 -28 5 -40 3 -55 -12
-10 -10 -28 -17 -39 -15 -25 4 -34 -19 -34 -85 0 -28 5 -43 13 -43 6 -1 22
-23 35 -49 19 -42 27 -49 60 -55 21 -3 38 -1 40 4 2 6 10 10 17 10 8 0 11 7 8
21 -4 14 -9 17 -16 10 -18 -18 -40 -13 -73 17 -43 38 -78 98 -68 120 4 9 8 21
8 26 1 13 26 20 26 7 0 -7 8 -7 28 0 51 20 180 -14 245 -64 39 -31 8 -60 -91
-87 l-43 -11 23 -18 c19 -16 20 -21 9 -35 -7 -9 -22 -16 -33 -16 -14 0 -18 -5
-14 -16 4 -12 1 -14 -14 -9 -11 4 -20 2 -20 -4 0 -6 5 -11 11 -11 7 0 10 -14
7 -35 -2 -19 0 -35 4 -35 4 0 9 8 10 18 0 9 2 23 2 29 1 7 6 13 11 13 6 0 13
-26 16 -57 l6 -58 1 48 c1 26 6 47 11 47 8 0 24 37 22 53 -1 4 6 7 14 7 8 0
15 -6 15 -14 0 -8 18 -37 40 -65 26 -33 40 -61 40 -80 0 -28 -4 -31 -62 -48
-73 -20 -72 -20 -76 4 -7 35 -17 32 -14 -5 2 -33 -1 -40 -38 -65 -22 -16 -40
-32 -40 -37 0 -10 -92 -60 -110 -60 -6 0 -46 -14 -88 -31 -51 -20 -85 -41
-102 -62 -22 -27 -23 -30 -5 -23 11 5 27 8 35 8 8 1 47 11 87 24 76 25 114 31
97 14 -5 -5 -50 -21 -99 -36 -129 -37 -153 -50 -176 -89 -11 -19 -28 -37 -38
-40 -26 -8 -193 2 -200 12 -9 14 -41 24 -41 13 0 -6 4 -10 10 -10 6 0 5 -11
-3 -27 -9 -21 -9 -27 1 -31 19 -6 14 -40 -8 -47 -11 -3 -20 -11 -20 -17 0 -12
53 -1 58 13 6 16 18 10 29 -13 6 -13 7 -32 2 -43 -7 -19 -8 -19 -8 3 -1 12 -5
22 -11 22 -10 0 -14 -13 -11 -37 3 -20 -18 -25 -35 -9 -9 9 -21 13 -27 9 -7
-4 -4 -9 9 -14 13 -5 3 -8 -31 -9 -27 0 -70 -5 -95 -11 -25 -6 -58 -13 -73
-16 -26 -5 -28 -9 -23 -35 5 -25 2 -31 -24 -42 -17 -7 -28 -15 -24 -18 8 -8
61 8 90 27 13 8 32 15 42 15 10 0 23 5 29 11 5 5 32 16 59 23 41 11 52 11 62
0 7 -7 12 -17 11 -21 -5 -29 2 -34 34 -27 74 16 127 3 127 -32 0 -32 112 -30
148 2 42 38 46 40 74 36 35 -5 37 -29 4 -42 -17 -6 -24 -16 -23 -30 1 -19 6
-20 43 -15 25 3 45 1 49 -5 9 -14 25 -13 25 3 0 6 11 17 24 23 19 9 23 9 19
-2 -2 -7 -12 -14 -21 -16 -26 -5 22 -48 53 -48 14 0 25 -5 25 -12 0 -7 5 -5
13 4 6 9 23 19 36 23 21 6 23 5 16 -11 -4 -11 -7 -26 -7 -34 0 -9 -14 -22 -31
-29 -18 -7 -40 -17 -49 -22 -10 -5 -24 -9 -31 -9 -16 0 -47 -36 -47 -55 0 -11
-8 -15 -27 -13 -20 2 -28 -2 -31 -16 -2 -11 -11 -26 -18 -34 -8 -8 -12 -22 -9
-32 3 -11 -4 -30 -20 -49 -23 -27 -32 -52 -34 -98 -1 -19 -19 -16 -23 5 -5 22
9 58 39 99 13 18 19 34 13 38 -6 4 -6 15 0 30 6 16 6 25 0 25 -15 0 -50 -33
-50 -46 0 -7 -11 -21 -25 -32 -14 -11 -28 -33 -31 -48 -8 -43 -26 -60 -58 -60
-23 1 -34 -6 -45 -28 -12 -22 -13 -30 -3 -33 6 -3 12 -14 12 -24 0 -11 -4 -18
-8 -15 -5 3 -15 -6 -22 -19 -15 -28 -28 -32 -36 -10 -4 8 -10 15 -15 15 -5 0
-9 -7 -9 -15 0 -19 -26 -20 -33 -1 -7 18 19 75 45 97 11 10 18 30 18 54 0 37
0 38 -20 20 -11 -10 -17 -22 -14 -27 4 -5 -3 -18 -15 -29 -12 -11 -21 -26 -21
-34 0 -8 -4 -15 -10 -15 -5 0 -12 -11 -16 -25 -7 -28 -8 -29 -35 -15 -18 10
-19 8 -13 -30 7 -44 -7 -54 -28 -20 -13 20 -13 20 -30 -2 -15 -19 -18 -20 -18
-6 0 21 -33 40 -55 32 -11 -5 -18 0 -22 15 -6 23 -11 25 -32 12 -8 -5 -11 -15
-8 -23 4 -11 -3 -15 -22 -15 -15 0 -39 -8 -55 -18 -26 -17 -27 -20 -10 -26 25
-9 5 -18 -56 -23 -29 -2 -45 -8 -45 -17 0 -8 -10 -18 -22 -24 -12 -5 -24 -17
-26 -26 -3 -12 -11 -16 -26 -12 -15 4 -21 1 -21 -11 0 -9 -3 -15 -7 -14 -5 0
-25 -6 -46 -16 -39 -17 -60 -47 -39 -54 7 -2 12 -14 12 -27 0 -30 25 -49 65
-51 38 -1 78 -34 73 -60 -4 -25 -36 -30 -52 -8 -15 20 -36 11 -36 -16 0 -18
-46 -70 -62 -70 -4 0 -10 10 -13 23 -12 37 -101 114 -163 138 -31 13 -67 32
-79 42 -20 18 -32 19 -114 13 -69 -5 -96 -11 -106 -24 -12 -16 -14 -16 -29 3
-14 19 -16 19 -25 3 -6 -10 -18 -18 -29 -18 -10 0 -26 -7 -35 -16 -9 -10 -35
-18 -57 -20 -33 -2 -49 -11 -79 -42 -20 -22 -40 -48 -43 -58 -3 -11 -18 -32
-32 -49 -15 -16 -25 -23 -22 -15 3 8 -1 21 -8 28 -17 16 -19 10 -29 -60 -3
-26 -10 -50 -15 -53 -4 -3 -11 -23 -15 -46 -4 -22 -13 -43 -21 -46 -8 -3 -14
-12 -14 -19 0 -19 -39 -136 -50 -149 -4 -5 -6 -64 -4 -131 5 -144 -8 -188 -79
-257 -34 -32 -42 -47 -37 -62 4 -11 5 -26 3 -32 -3 -8 3 -13 16 -13 12 0 21
-5 21 -11 0 -5 -4 -7 -10 -4 -5 3 -10 1 -10 -4 0 -16 30 -13 36 3 4 11 12 12
39 3 30 -9 33 -12 24 -34 -5 -13 -9 -26 -9 -29 0 -9 28 -3 59 12 41 20 65 12
59 -21 -5 -22 -3 -24 20 -18 21 5 24 3 19 -11 -8 -21 -5 -21 78 8 141 48 233
76 252 76 10 0 23 4 29 10 5 5 25 12 44 14 19 3 49 9 67 15 18 5 40 7 50 5 10
-3 28 4 39 15 12 11 50 34 85 52 35 17 66 35 69 40 3 5 20 -1 38 -11 18 -11
35 -20 37 -20 11 0 4 40 -7 40 -7 0 -5 5 5 11 28 16 39 -2 22 -35 -19 -36 -16
-39 28 -31 27 5 36 13 40 31 3 17 0 24 -11 24 -13 0 -12 3 3 20 11 12 16 29
13 45 -5 26 2 30 47 27 15 -2 17 0 6 7 -10 6 -10 10 -1 16 7 4 16 2 20 -5 6
-9 10 -7 15 9 3 11 13 21 21 21 8 0 14 5 14 10 0 6 7 10 15 10 8 0 15 -4 15
-10 0 -5 -5 -10 -12 -10 -6 0 -8 -3 -5 -7 4 -3 16 2 26 11 11 10 25 15 31 11
7 -4 16 -2 20 6 7 10 12 10 23 1 25 -21 85 -7 118 29 26 28 31 30 42 16 7 -8
27 -18 45 -22 31 -6 32 -5 32 24 0 22 5 31 16 31 10 0 13 -6 9 -19 -4 -13 3
-26 25 -44 32 -28 39 -47 16 -47 -8 0 -18 -4 -21 -10 -3 -5 0 -7 8 -4 8 3 18
1 22 -5 3 -6 20 -11 36 -11 20 0 29 -4 27 -12 -6 -16 -205 -21 -214 -6 -3 5 2
16 12 23 18 13 18 14 2 15 -10 0 -18 -4 -18 -9 0 -4 -41 -8 -92 -8 -63 1 -93
-3 -96 -11 -2 -7 3 -12 12 -12 9 0 16 -4 16 -9 0 -4 16 -11 35 -14 19 -3 45
-15 57 -27 12 -11 33 -23 45 -26 13 -4 23 -10 23 -15 0 -5 7 -6 15 -3 8 4 13
9 11 13 -2 3 10 6 27 7 18 1 26 -1 19 -3 -8 -3 -5 -11 10 -23 13 -10 19 -22
15 -26 -4 -5 -12 -3 -16 5 -13 20 -67 10 -63 -11 2 -10 -2 -18 -8 -18 -5 0
-10 -5 -10 -11 0 -5 4 -7 10 -4 5 3 21 -5 35 -19 29 -30 35 -31 35 -13 0 8 11
19 25 25 14 6 25 16 25 21 0 5 9 11 20 14 17 4 18 1 13 -27 -3 -17 -12 -35
-20 -39 -18 -11 -17 -57 2 -57 10 0 15 -10 15 -30 0 -17 5 -30 12 -30 20 0 -4
-17 -34 -24 -21 -5 -28 -3 -28 9 0 11 -11 15 -41 15 -30 0 -40 -4 -36 -13 3
-8 -9 -27 -25 -43 -31 -28 -31 -28 -45 -8 -13 20 -16 20 -51 8 -20 -7 -45 -13
-55 -14 -11 0 -15 -5 -11 -11 3 -6 -5 -4 -19 6 -20 13 -30 14 -46 5 -12 -6
-21 -17 -21 -24 0 -17 -45 -40 -64 -33 -9 4 -21 18 -26 32 -6 17 -20 27 -40
31 -16 4 -30 13 -30 20 0 8 -4 14 -10 14 -5 0 -10 8 -10 17 0 15 -2 14 -15 -3
-8 -10 -15 -29 -15 -42 0 -17 -5 -22 -22 -21 -62 5 -84 -1 -101 -30 -9 -16
-17 -40 -17 -54 0 -25 -25 -55 -37 -43 -3 3 -17 -1 -31 -10 -17 -11 -27 -13
-35 -5 -6 6 -30 11 -53 11 -35 0 -44 -4 -50 -22 -5 -13 -7 -26 -6 -30 1 -4
-20 -10 -46 -13 -26 -4 -54 -9 -62 -12 -8 -3 -23 -5 -32 -4 -10 1 -18 -2 -18
-8 0 -6 -6 -8 -14 -5 -8 3 -17 1 -21 -5 -10 -17 -25 -13 -25 7 0 9 -4 24 -9
31 -8 12 -11 9 -17 -13 -5 -19 -2 -31 7 -37 9 -6 10 -9 2 -9 -11 0 -21 8 -50
44 -7 8 -20 19 -29 24 -9 5 -19 24 -23 43 -7 37 -24 42 -29 9 -4 -21 -28 -28
-34 -9 -2 7 -18 5 -48 -5 -29 -10 -48 -12 -56 -5 -7 6 -21 4 -40 -6 -16 -8
-24 -15 -19 -15 6 0 2 -5 -8 -11 -14 -8 -23 -7 -37 6 -16 14 -19 14 -27 2 -4
-8 -23 -18 -41 -22 -31 -6 -32 -5 -28 19 4 23 1 26 -23 26 -15 0 -38 -8 -49
-17 -12 -10 -36 -29 -53 -43 -17 -14 -49 -43 -70 -64 -22 -21 -42 -36 -45 -33
-6 6 57 136 88 179 12 18 17 29 11 25 -6 -4 -14 0 -17 9 -3 9 -12 14 -20 11
-7 -3 -30 -2 -49 3 -20 4 -39 4 -44 0 -8 -9 -44 -13 -78 -11 -15 1 -12 5 13
16 42 18 41 42 -3 59 -19 8 -19 9 5 16 95 31 160 46 162 38 2 -5 10 -3 18 4 8
7 14 12 11 11 -10 -6 -31 29 -31 51 0 21 -5 25 -37 28 l-38 4 35 11 c19 6 27
12 17 12 -10 1 -16 5 -12 10 6 11 -2 9 -170 -49 -159 -55 -433 -191 -555 -275
-96 -67 -123 -181 -76 -323 25 -75 33 -87 137 -198 61 -65 117 -130 125 -146
14 -26 12 -30 -29 -85 -90 -121 -107 -199 -61 -289 16 -31 34 -59 42 -61 7 -3
26 6 41 21 15 14 33 26 40 26 6 0 26 7 44 17 18 9 42 17 55 19 19 2 22 -2 22
-31 0 -19 -5 -37 -10 -40 -15 -9 -12 -35 4 -35 8 0 17 8 21 18 3 9 22 29 41
44 l36 27 18 -22 c21 -25 14 -44 -31 -90 -22 -24 -33 -28 -58 -22 -20 4 -28
11 -24 21 7 20 -4 18 -40 -8 -26 -19 -46 -23 -102 -23 -38 0 -74 -3 -80 -7 -5
-3 -32 -9 -60 -13 -106 -16 -226 -98 -270 -185 -38 -74 -46 -124 -33 -207 10
-63 9 -78 -6 -115 -26 -63 -33 -73 -45 -70 -20 4 -51 -18 -51 -36 0 -12 -3
-13 -8 -5 -5 9 -26 -5 -67 -45 -118 -114 -149 -175 -171 -347 -30 -231 16
-352 205 -534 47 -45 181 -134 223 -146 13 -4 52 -22 88 -40 98 -49 216 -101
300 -131 41 -14 91 -35 111 -45 19 -9 64 -27 98 -39 35 -11 82 -29 105 -39 22
-10 68 -29 101 -41 33 -12 87 -32 120 -45 33 -12 87 -33 120 -45 33 -13 110
-47 171 -76 185 -89 271 -184 289 -319 11 -87 -42 -292 -113 -430 -37 -74 -86
-157 -77 -130 18 51 18 51 -37 64 -57 12 -179 7 -233 -10 -63 -20 -291 -49
-389 -49 -102 0 -317 27 -436 54 -98 22 -159 30 -225 30 -57 -1 -99 -3 -275
-18 -113 -10 -53 11 75 25 l105 12 -1 49 c-1 27 -6 51 -11 54 -4 3 -8 12 -8
20 0 25 -80 142 -120 177 -21 18 -58 42 -82 54 -147 71 -182 86 -270 112 -115
34 -177 62 -178 78 0 7 -24 31 -52 54 -29 22 -62 49 -74 58 -25 22 -200 121
-213 121 -5 0 -22 13 -38 28 -29 29 -151 114 -217 152 -20 11 -53 30 -73 42
-61 34 -185 94 -228 109 -22 8 -42 17 -45 20 -9 10 -160 66 -270 98 -410 123
-747 192 -1020 211 -80 6 -171 15 -204 21 -40 7 -73 7 -105 0 -25 -5 -120 -12
-211 -15 -169 -5 -230 4 -255 37 -5 7 -18 16 -27 20 -10 3 -18 13 -18 21 0 20
-32 36 -58 29 -12 -3 -41 5 -67 17 -33 16 -55 20 -78 15 -18 -3 -74 -9 -125
-12 -75 -4 -97 -2 -117 11 -21 14 -32 15 -67 5 -31 -8 -43 -8 -46 0 -2 6 -10
11 -17 11 -24 0 -26 29 -2 32 17 3 6 11 -45 38 -38 18 -68 38 -68 43 0 5 -7 7
-15 3 -8 -3 -15 -1 -15 4 0 5 -14 17 -31 26 -35 18 -83 15 -139 -7 -45 -19
-137 -104 -161 -151 -11 -21 -24 -38 -29 -38 -6 0 -10 -6 -10 -14 0 -7 -18
-57 -40 -110 -22 -53 -40 -101 -40 -107 0 -6 -10 -24 -21 -41 -12 -16 -23 -50
-25 -76 -4 -44 -17 -72 -30 -60 -3 4 -1 15 5 26 8 16 7 21 -5 26 -23 9 -27 7
-20 -9 3 -8 1 -15 -4 -15 -6 0 -10 -9 -10 -20 0 -11 -7 -20 -15 -20 -8 0 -15
5 -15 11 0 6 -7 9 -15 5 -8 -3 -29 0 -47 6 -24 9 -33 8 -36 0 -4 -14 -32 -16
-32 -2 0 5 6 13 14 17 30 18 26 76 -6 79 -7 0 -21 2 -30 2 -10 1 -18 10 -19
20 0 9 -3 12 -5 5 -9 -21 -34 -2 -56 41 -18 35 -22 38 -28 21 -6 -17 -10 -14
-35 23 -15 23 -32 42 -36 42 -5 0 -9 16 -9 35 0 34 -1 35 -40 35 -36 0 -40 3
-40 24 0 13 -5 26 -10 28 -7 2 -6 14 2 35 15 41 7 49 -37 36 -19 -6 -34 -8
-33 -4 0 3 0 25 -1 49 l-1 42 -40 0 -40 0 0 59 c0 33 5 63 10 66 15 9 42 -15
36 -32 -4 -10 18 -13 109 -13 l115 0 0 36 c0 27 7 43 25 58 30 26 26 48 -11
64 -13 7 -25 18 -25 27 -3 28 -4 33 -11 41 -5 4 -8 0 -8 -9 0 -21 -3 -21 -41
-2 -16 9 -27 20 -24 25 3 5 -7 12 -22 16 -15 3 -41 10 -57 15 -16 5 -41 9 -55
9 -15 0 -45 9 -66 21 -22 11 -71 24 -110 28 -45 6 -58 9 -35 11 95 6 76 16
-50 28 -339 31 -683 57 -739 55 -24 -1 -34 3 -38 15 -4 17 -65 42 -103 42 -11
0 -20 5 -20 11 0 12 -64 40 -82 37 -7 -2 -13 4 -13 12 0 14 -42 31 -77 31 -10
0 -18 4 -18 10 0 5 -11 9 -25 9 -17 0 -23 4 -19 14 4 11 0 13 -15 9 -15 -4
-30 3 -48 21 -28 28 -86 39 -63 11 16 -19 1 -19 -24 0 -11 8 -14 15 -8 15 7 0
12 5 12 10 0 6 -9 10 -20 10 -11 0 -20 5 -20 10 0 13 27 13 35 0 3 -5 16 -10
29 -10 12 0 26 -4 31 -8 6 -4 28 -14 50 -21 42 -15 176 -74 209 -92 33 -19
180 -79 193 -79 7 0 13 -4 13 -8 0 -13 83 -33 120 -29 29 4 36 8 38 31 2 15
10 30 18 33 8 3 14 12 14 20 0 15 121 363 145 418 7 17 23 62 35 100 12 39 28
79 34 90 7 11 20 43 30 70 17 47 31 78 84 196 12 26 24 58 28 72 3 15 12 31
20 38 8 6 14 16 14 22 0 12 53 151 80 212 10 22 23 58 30 80 7 22 16 45 20 50
4 6 17 37 30 70 38 98 49 123 123 275 39 80 82 163 96 185 42 66 45 71 65 106
10 19 36 57 57 86 22 29 39 55 39 58 0 4 13 25 28 48 16 23 40 60 54 82 14 22
52 82 84 133 33 52 69 108 81 125 70 100 93 139 87 149 -4 6 -3 8 3 5 6 -4 51
46 104 116 51 67 99 128 106 135 7 7 13 17 13 22 0 4 25 34 55 67 30 32 55 62
55 67 0 5 10 18 23 30 12 12 34 39 49 61 15 22 42 60 59 85 42 59 138 201 230
345 44 68 96 138 134 181 11 12 163 179 205 225 14 14 45 50 70 79 25 29 52
60 60 69 9 9 36 43 60 76 25 33 84 101 133 151 l87 91 66 7 c49 5 71 3 83 -7
9 -7 30 -19 46 -27 17 -8 52 -32 79 -53 28 -21 75 -52 105 -68 31 -17 67 -36
81 -44 73 -41 355 -144 496 -181 60 -15 141 -54 242 -116 78 -48 130 -67 267
-98 56 -13 140 -42 195 -67 131 -62 209 -83 305 -83 105 0 136 17 197 105 96
138 86 251 -40 468 -18 31 -38 57 -44 57 -7 0 -7 -4 0 -13 6 -7 8 -18 4 -24
-5 -8 -13 0 -22 20 -15 31 -15 30 -20 -59 -3 -56 -10 -97 -19 -108 -19 -22
-21 -18 -31 55 -7 48 -6 70 6 97 18 45 18 45 -10 40 -28 -6 -37 7 -26 37 6 15
1 26 -18 43 -21 18 -23 25 -13 31 38 24 -113 24 -194 1 -16 -4 -45 -11 -64
-14 -34 -6 -34 -6 -16 14 12 13 31 20 57 20 26 0 37 4 32 11 -3 6 -15 9 -25 6
-11 -3 -22 0 -27 6 -13 22 -49 36 -60 25 -7 -7 -15 -1 -26 19 -9 19 -11 34 -6
39 6 6 2 30 -10 64 -24 65 -25 80 -6 80 14 0 42 -35 63 -80 l11 -25 1 28 c1
33 -16 70 -28 62 -10 -6 -22 20 -14 29 4 3 12 1 20 -6 19 -16 23 -8 14 32 -4
22 -10 30 -14 22 -12 -18 -30 -15 -23 4 4 9 2 22 -4 29 -12 15 -9 57 5 68 6 4
6 10 -2 15 -8 5 -14 38 -15 85 -2 54 -7 77 -15 77 -7 0 -13 -4 -13 -10 0 -5
-5 -10 -10 -10 -6 0 -10 17 -8 38 1 20 -2 74 -6 120 -10 98 6 112 22 20 13
-77 29 -138 31 -118 1 8 2 68 3 133 1 113 9 148 21 88 3 -15 4 -39 1 -52 -5
-23 -5 -23 10 -5 20 25 31 15 16 -14 -6 -12 -9 -24 -6 -27 7 -7 30 48 27 66
-1 7 2 10 8 7 5 -4 13 4 17 16 30 99 188 344 298 463 14 15 26 32 26 36 0 8
60 53 234 175 76 54 103 63 401 135 72 17 175 46 230 64 55 18 140 38 189 44
50 7 94 14 98 17 4 3 52 14 107 24 54 11 132 30 173 44 58 19 103 25 223 30
83 3 175 12 206 19 70 17 140 57 164 93 22 34 28 121 9 128 -22 9 -16 28 6 21
29 -9 25 7 -11 41 -28 27 -35 29 -110 28 -43 0 -79 3 -79 7 0 5 -17 11 -37 15
-64 11 -133 54 -78 48 14 -1 23 2 19 7 -3 5 -13 9 -22 9 -9 1 -42 9 -72 20
-50 18 -85 19 -386 20 -280 0 -338 -3 -378 -16 -55 -19 -47 -33 19 -35 24 -1
31 -4 17 -6 -13 -3 -19 -9 -16 -15 5 -7 -2 -9 -19 -6 -15 3 -24 2 -22 -3 8
-13 -28 -16 -58 -4 -23 8 -30 7 -38 -7 -5 -10 -16 -15 -24 -12 -8 4 -15 2 -15
-3 0 -6 -14 -10 -32 -11 -18 0 -41 -5 -53 -11 -11 -5 -46 -15 -78 -21 -48 -10
-56 -14 -46 -26 16 -19 10 -21 -171 -40 -30 -3 -65 -10 -77 -16 -17 -8 -26 -8
-38 2 -10 8 -15 9 -15 1 0 -6 -13 -11 -30 -11 -21 0 -28 -4 -24 -14 7 -19 -23
-35 -79 -40 -24 -2 -54 -10 -65 -17 -17 -11 -25 -9 -54 13 -70 55 -94 83 -92
108 3 65 27 141 55 176 36 46 69 66 166 105 41 16 92 38 113 49 l37 19 112
-27 c108 -27 112 -29 162 -81 30 -31 73 -63 106 -78 53 -25 59 -25 124 -14 65
12 109 36 109 60 0 6 4 11 8 11 14 0 43 60 35 73 -4 6 -8 17 -8 22 -1 6 -4 17
-8 25 -3 8 -11 27 -16 41 -6 16 -26 34 -53 47 -52 24 -134 33 -130 15 1 -7 -5
-13 -13 -13 -8 0 -15 4 -15 9 0 5 -9 13 -20 16 -11 3 -20 13 -20 21 0 8 -4 14
-10 14 -13 0 -13 -6 2 -30 7 -10 9 -22 6 -25 -10 -11 -77 25 -98 53 -18 22
-19 27 -6 46 8 12 20 20 26 18 6 -1 14 7 17 18 7 28 23 25 23 -4 0 -31 26 -41
40 -15 12 22 6 39 -15 39 -8 0 -21 13 -30 29 -8 16 -19 31 -25 33 -6 2 -8 11
-5 21 6 13 19 17 57 17 41 0 57 -6 89 -31 56 -44 48 -23 -13 34 -38 35 -54 44
-60 35 -7 -12 -9 -11 -12 13 0 5 -14 18 -29 27 -27 16 -29 16 -43 -2 -8 -12
-14 -14 -14 -7 0 7 -6 11 -13 8 -7 -3 -33 -1 -57 3 -35 6 -47 5 -55 -7 -11
-14 -12 -14 -18 0 -4 10 -23 19 -47 23 -43 7 -74 29 -65 45 4 5 -9 9 -27 9
-21 0 -40 7 -51 20 -9 11 -24 20 -32 20 -8 0 -15 5 -15 10 0 6 35 11 83 11 59
1 74 4 52 9 -33 8 -118 10 -150 3z m442 -159 c-3 -3 -12 -4 -19 -1 -8 3 -5 6
6 6 11 1 17 -2 13 -5z m-757 -108 c0 -2 -7 -7 -16 -10 -8 -3 -12 -2 -9 4 6 10
25 14 25 6z m-1463 -52 c-3 -3 -12 -4 -19 -1 -8 3 -5 6 6 6 11 1 17 -2 13 -5z
m1383 -30 c-18 -21 -24 -10 -8 15 7 12 14 17 16 11 2 -6 -2 -17 -8 -26z
m-1510 -334 c-7 -17 -21 -35 -31 -41 -27 -14 -23 -29 6 -29 18 0 25 -5 25 -20
0 -19 -2 -19 -32 -7 -18 8 -39 12 -47 9 -9 -3 -12 0 -8 10 3 9 0 21 -6 27 -8
8 -8 11 1 11 7 0 12 6 12 13 0 20 52 65 57 50 7 -19 23 -16 23 4 0 9 3 13 6
10 4 -4 1 -20 -6 -37z m1101 -230 c11 51 0 -196 -17 -395 -8 -93 -19 -236 -24
-316 -5 -80 -14 -177 -20 -215 -7 -38 -18 -115 -25 -172 -13 -97 -34 -150 -69
-174 -19 -13 -65 26 -89 76 -36 72 -46 220 -18 254 18 21 71 31 71 14 0 -5 9
-20 21 -33 19 -22 21 -34 17 -142 -2 -71 1 -116 7 -114 18 6 55 197 71 362 1
17 5 48 8 70 8 54 10 257 2 286 -3 13 -3 18 0 11 8 -18 24 -4 24 21 0 18 -2
19 -10 7 -10 -14 -14 59 -9 160 1 14 1 75 1 135 0 78 2 98 8 70 7 -37 7 -36 9
25 3 59 4 62 12 33 5 -18 11 -33 13 -33 2 0 2 21 1 48 -2 29 0 35 3 17 l5 -30
8 35z m-1734 -62 c-3 -8 -6 -5 -6 6 -1 11 2 17 5 13 3 -3 4 -12 1 -19z m-246
-185 c-12 -20 -14 -14 -5 12 4 9 9 14 11 11 3 -2 0 -13 -6 -23z m127 -45 c14
-14 16 -45 2 -53 -13 -8 -60 24 -60 40 0 23 39 32 58 13z m-673 -718 c-16 -31
-35 -40 -35 -16 0 11 34 43 48 45 1 1 -4 -12 -13 -29z m1704 -270 c0 -67 -25
-126 -64 -146 -32 -16 -49 -18 -40 -4 3 6 2 10 -3 10 -5 0 -9 7 -9 15 0 8 -5
39 -13 68 -8 36 -9 60 -3 72 9 15 11 13 21 -12 6 -15 16 -48 24 -73 16 -55 39
-59 50 -10 4 19 6 105 3 190 l-4 155 19 -105 c10 -58 19 -130 19 -160z m1111
40 c0 -5 -5 -10 -11 -10 -5 0 -7 5 -4 10 3 6 8 10 11 10 2 0 4 -4 4 -10z m57
-52 c-3 -8 -6 -5 -6 6 -1 11 2 17 5 13 3 -3 4 -12 1 -19z m-3222 -78 c-3 -5
-14 -10 -23 -10 -15 0 -15 2 -2 10 20 13 33 13 25 0z m2929 -25 c3 -8 1 -15
-4 -15 -6 0 -10 7 -10 15 0 8 2 15 4 15 2 0 6 -7 10 -15z m-2961 -12 c-7 -2
-19 -2 -25 0 -7 3 -2 5 12 5 14 0 19 -2 13 -5z m-43 -10 c0 -10 -20 -40 -20
-31 0 3 -3 13 -6 22 -4 11 -1 16 10 16 9 0 16 -3 16 -7z m8760 -68 c7 -8 8
-15 2 -15 -5 0 -15 7 -22 15 -7 8 -8 15 -2 15 5 0 15 -7 22 -15z m-8910 -45
c0 -5 -4 -10 -10 -10 -5 0 -10 5 -10 10 0 6 5 10 10 10 6 0 10 -4 10 -10z
m9715 -80 c-5 -8 -11 -8 -17 -2 -6 6 -7 16 -3 22 5 8 11 8 17 2 6 -6 7 -16 3
-22z m-9870 -39 c-3 -6 -11 -11 -16 -11 -5 0 -4 6 3 14 14 16 24 13 13 -3z
m10575 -106 c122 -24 211 -46 242 -62 15 -7 51 -18 80 -24 29 -6 67 -20 84
-30 17 -10 42 -19 55 -19 14 0 33 -6 44 -14 11 -7 34 -16 50 -19 30 -5 192
-51 293 -82 53 -16 74 -33 25 -20 -16 4 -50 11 -78 15 -58 10 -188 32 -313 55
-48 8 -107 21 -132 27 -25 6 -65 12 -90 13 -25 1 -69 6 -99 10 -46 7 -51 10
-31 17 12 5 31 6 41 3 23 -8 26 10 3 19 -9 3 -32 6 -52 7 -20 0 -55 8 -77 18
-33 15 -37 19 -20 24 22 6 75 2 118 -8 17 -5 27 -3 27 4 0 6 -10 11 -22 11
-13 0 -48 7 -78 15 -84 23 -276 47 -368 46 -45 0 -92 4 -105 10 -38 16 307 3
403 -16z m-10700 -19 c0 -3 -4 -8 -10 -11 -5 -3 -10 -1 -10 4 0 6 5 11 10 11
6 0 10 -2 10 -4z m10340 -24 c58 -5 157 -9 221 -8 104 1 115 0 112 -15 -5 -17
-50 -32 -57 -20 -2 3 -70 4 -151 1 -81 -3 -149 -1 -152 3 -3 5 -10 4 -16 -2
-6 -6 -17 -7 -26 -2 -9 5 -50 12 -91 16 -41 4 -86 8 -100 9 -14 2 -47 4 -75 6
l-50 2 65 12 c70 12 155 12 320 -2z m337 12 c-3 -3 -12 -4 -19 -1 -8 3 -5 6 6
6 11 1 17 -2 13 -5z m-577 -54 c0 -5 -2 -10 -4 -10 -3 0 -8 5 -11 10 -3 6 -1
10 4 10 6 0 11 -4 11 -10z m560 -54 c0 -3 -4 -8 -10 -11 -5 -3 -10 -1 -10 4 0
6 5 11 10 11 6 0 10 -2 10 -4z m800 -206 c0 -6 -8 -10 -17 -11 -189 -11 -253
-8 -253 10 0 5 61 9 135 10 84 0 135 -3 135 -9z m139 -6 c23 -5 36 -3 41 7 7
11 12 10 27 -3 10 -8 25 -18 33 -22 8 -3 -14 -4 -50 -1 -125 10 -170 17 -170
27 0 10 49 7 119 -8z m-455 0 c42 -16 4 -26 -149 -38 -22 -1 -60 -6 -85 -10
-36 -6 -41 -5 -27 4 10 7 55 18 100 26 44 8 83 16 85 19 7 7 57 6 76 -1z m736
-33 c0 -5 10 -11 22 -14 12 -4 19 -9 16 -12 -3 -3 -23 3 -44 14 -31 17 -34 21
-16 21 12 0 22 -4 22 -9z m-1040 -27 c0 -8 -5 -12 -10 -9 -6 4 -8 11 -5 16 9
14 15 11 15 -7z m1124 -20 c5 -14 4 -15 -9 -4 -17 14 -19 20 -6 20 5 0 12 -7
15 -16z m-1254 -14 c0 -5 -5 -10 -11 -10 -5 0 -7 5 -4 10 3 6 8 10 11 10 2 0
4 -4 4 -10z m-2060 -10 c0 -5 -4 -10 -10 -10 -5 0 -10 5 -10 10 0 6 5 10 10
10 6 0 10 -4 10 -10z m2620 -4 c0 -19 -20 -24 -115 -24 l-80 -1 40 15 c26 10
56 13 85 9 32 -4 41 -3 30 4 -12 9 -9 11 13 11 17 0 27 -5 27 -14z m-620 -25
c9 -1 11 -4 4 -11 -6 -6 -46 -12 -89 -14 -45 -3 -81 -9 -85 -16 -4 -7 -15 -10
-24 -8 -12 2 -8 8 16 19 70 34 94 38 178 30z m406 -1 c17 -7 24 -14 18 -20
-13 -13 -54 -1 -54 16 0 17 1 17 36 4z m-2111 -11 c22 -6 45 -19 52 -28 11
-14 12 -14 13 7 0 26 15 29 36 7 23 -23 13 -48 -24 -57 -38 -10 -77 6 -68 28
3 8 0 14 -7 14 -15 0 -66 39 -52 40 6 0 28 -5 50 -11z m1780 1 c3 -5 1 -10 -4
-10 -6 0 -11 5 -11 10 0 6 2 10 4 10 3 0 8 -4 11 -10z m-2015 -15 c0 -8 -4
-15 -10 -15 -5 0 -10 7 -10 15 0 8 5 15 10 15 6 0 10 -7 10 -15z m2200 -3 c0
-13 -12 -22 -22 -16 -10 6 -1 24 13 24 5 0 9 -4 9 -8z m1200 -32 c0 -13 -11
-13 -30 0 -12 8 -11 10 8 10 12 0 22 -4 22 -10z m-2950 -60 c0 -5 -5 -10 -11
-10 -5 0 -7 5 -4 10 3 6 8 10 11 10 2 0 4 -4 4 -10z m-175 -41 c3 -4 1 -10 -5
-14 -11 -7 -53 19 -44 27 7 7 43 -2 49 -13z m3345 -15 c0 -2 -7 -4 -15 -4 -8
0 -15 4 -15 10 0 5 7 7 15 4 8 -4 15 -8 15 -10z m110 -64 c0 -5 -2 -10 -4 -10
-3 0 -8 5 -11 10 -3 6 -1 10 4 10 6 0 11 -4 11 -10z m80 -32 c0 -12 -24 -10
-38 4 -20 20 -13 28 13 16 14 -6 25 -15 25 -20z m26 -123 c4 -8 13 -15 22 -15
12 0 13 -3 5 -11 -16 -16 -53 -1 -53 22 0 23 18 25 26 4z m-3286 1 c0 -3 -4
-8 -10 -11 -5 -3 -10 -1 -10 4 0 6 5 11 10 11 6 0 10 -2 10 -4z m-60 -25 c0
-12 -29 -35 -36 -28 -11 10 5 37 21 37 8 0 15 -4 15 -9z m3415 -43 c17 -14 23
-28 19 -40 -4 -13 5 -28 26 -48 38 -35 71 -40 63 -10 -5 19 -2 18 36 -7 51
-33 52 -46 4 -38 -30 5 -35 4 -23 -5 12 -9 10 -10 -10 -4 -14 3 -32 13 -41 20
-8 8 -20 14 -26 14 -13 0 -36 27 -39 46 -1 8 -12 33 -23 54 -24 46 -21 49 14
18z m-31 -73 c11 -8 18 -17 15 -19 -7 -7 -49 13 -49 24 0 14 11 12 34 -5z
m294 -94 c3 -16 0 -21 -8 -16 -6 4 -9 13 -6 20 3 8 1 16 -5 19 -5 2 -4 3 3 2
7 -1 15 -13 16 -25z m-48 1 c24 -11 21 -40 -4 -34 -25 6 -46 21 -46 33 0 10
28 11 50 1z m-3924 -59 c-11 -11 -17 4 -9 23 7 18 8 18 11 1 2 -10 1 -21 -2
-24z m-60 -87 c5 -21 4 -27 -5 -22 -6 4 -11 14 -11 21 0 8 -10 19 -21 26 -17
9 -19 13 -8 20 18 11 35 -7 45 -45z m7319 34 c3 -5 1 -10 -4 -10 -6 0 -11 5
-11 10 0 6 2 10 4 10 3 0 8 -4 11 -10z m-7532 -160 c-3 -11 -9 -20 -13 -20 -5
0 -6 9 -3 20 3 11 9 20 13 20 5 0 6 -9 3 -20z m7593 -1 c12 -19 -13 -33 -30
-17 -8 9 -12 18 -9 22 10 10 31 7 39 -5z m-647 -63 c9 -10 8 -15 -2 -19 -8 -3
-13 3 -13 14 0 23 0 23 15 5z m836 4 c3 -5 1 -10 -4 -10 -6 0 -11 5 -11 10 0
6 2 10 4 10 3 0 8 -4 11 -10z m-7845 -40 c0 -5 -4 -10 -10 -10 -5 0 -10 5 -10
10 0 6 5 10 10 10 6 0 10 -4 10 -10z m7103 -68 c41 -52 33 -63 -11 -14 -21 23
-43 42 -50 42 -6 0 -12 7 -12 15 0 8 -6 15 -12 15 -9 0 -8 3 2 10 15 10 29 -2
83 -68z m-7218 -12 c3 -5 -3 -10 -14 -10 -12 0 -21 5 -21 10 0 6 6 10 14 10 8
0 18 -4 21 -10z m4425 -201 c0 -5 -4 -9 -10 -9 -5 0 -10 7 -10 16 0 8 5 12 10
9 6 -3 10 -10 10 -16z m-4840 -59 c0 -5 -6 -10 -14 -10 -8 0 -18 5 -21 10 -3
6 3 10 14 10 12 0 21 -4 21 -10z m9730 -225 l25 -14 -37 -1 c-27 0 -38 4 -38
15 0 19 17 19 50 0z m-777 -103 c35 -15 52 -35 25 -29 -9 1 -14 -13 -16 -39
-3 -39 -5 -42 -38 -48 -19 -4 -39 -4 -44 -1 -6 4 -24 -1 -42 -9 -27 -14 -34
-14 -60 -1 -31 15 -72 10 -46 -6 9 -6 9 -9 1 -9 -25 0 -23 22 4 55 15 18 33
34 38 35 6 0 30 18 55 40 48 42 52 42 123 12z m-218 -12 c3 -5 1 -10 -4 -10
-6 0 -11 5 -11 10 0 6 2 10 4 10 3 0 8 -4 11 -10z m-8295 -18 c0 -5 10 -14 23
-20 22 -10 22 -11 -5 -11 -16 -1 -28 4 -28 9 0 6 -7 10 -15 10 -8 0 -15 5 -15
10 0 6 9 10 20 10 11 0 20 -4 20 -8z m8440 -122 c0 -5 -7 -7 -15 -4 -8 4 -15
8 -15 10 0 2 7 4 15 4 8 0 15 -4 15 -10z m-8640 -25 c7 -9 10 -18 6 -22 -3 -3
-6 -2 -6 4 0 6 -11 8 -25 5 -24 -4 -33 7 -18 21 11 12 30 8 43 -8z m8576 -23
c-9 -9 -37 8 -31 18 5 8 11 7 21 -1 8 -6 12 -14 10 -17z m-8496 -12 c0 -5 -2
-10 -4 -10 -3 0 -8 5 -11 10 -3 6 -1 10 4 10 6 0 11 -4 11 -10z m8450 6 c0
-11 -19 -15 -25 -6 -3 5 1 10 9 10 9 0 16 -2 16 -4z m-95 -47 c-4 -5 -19 -7
-34 -4 -15 3 -38 1 -52 -4 -13 -5 -20 -10 -14 -10 5 -1 0 -8 -12 -16 -20 -14
-21 -17 -6 -46 8 -16 12 -33 9 -36 -3 -4 -6 -1 -6 5 0 7 -7 9 -17 5 -16 -6
-16 -5 -4 10 11 14 11 17 -1 17 -8 0 -19 -5 -26 -12 -27 -27 -11 15 18 49 17
18 30 38 30 43 0 6 27 10 61 10 40 0 58 -4 54 -11z m1749 -34 c3 -8 1 -15 -4
-15 -6 0 -10 7 -10 15 0 8 2 15 4 15 2 0 6 -7 10 -15z m63 -137 c-3 -8 -6 -5
-6 6 -1 11 2 17 5 13 3 -3 4 -12 1 -19z m-11602 -28 c3 -5 1 -10 -4 -10 -6 0
-11 5 -11 10 0 6 2 10 4 10 3 0 8 -4 11 -10z m11527 -122 c-9 -9 -12 -7 -12
12 0 19 3 21 12 12 9 -9 9 -15 0 -24z m-11775 -23 c2 -1 -12 -1 -30 -1 -17 0
-48 -3 -67 -8 -25 -6 -32 -5 -25 3 17 17 88 29 105 17 8 -6 16 -11 17 -11z
m-152 -25 c-3 -5 -11 -10 -16 -10 -6 0 -7 5 -4 10 3 6 11 10 16 10 6 0 7 -4 4
-10z m-60 -30 c3 -5 -1 -10 -9 -10 -9 0 -16 5 -16 10 0 6 4 10 9 10 6 0 13 -4
16 -10z m-35 -4 c0 -2 -7 -7 -16 -10 -8 -3 -12 -2 -9 4 6 10 25 14 25 6z m87
-22 c-3 -3 -12 -4 -19 -1 -8 3 -5 6 6 6 11 1 17 -2 13 -5z m2133 -49 c0 -8 -7
-15 -15 -15 -16 0 -20 12 -8 23 11 12 23 8 23 -8z m-2393 -41 c-3 -3 -12 -4
-19 -1 -8 3 -5 6 6 6 11 1 17 -2 13 -5z m2163 2 c0 -3 -4 -8 -10 -11 -5 -3
-10 -1 -10 4 0 6 5 11 10 11 6 0 10 -2 10 -4z m-2220 -41 c4 -26 10 -30 43
-33 28 -3 37 0 37 12 0 17 25 22 34 7 10 -16 55 -18 76 -4 15 11 40 13 98 9
87 -5 112 -12 112 -31 0 -7 12 -16 28 -20 54 -13 79 -58 48 -84 -7 -6 -34 -12
-60 -14 -25 -1 -46 -5 -46 -9 0 -10 -122 -1 -129 9 -9 13 -204 45 -224 37 -12
-4 -17 -1 -17 10 0 9 8 16 18 16 14 0 12 4 -8 20 -14 11 -38 20 -55 20 -61 0
-81 2 -62 7 9 2 15 8 12 13 -3 5 -13 6 -23 3 -14 -5 -15 -4 -4 8 10 11 16 11
32 1 28 -17 30 -16 30 17 0 50 52 55 60 6z m2393 28 c-7 -2 -19 -2 -25 0 -7 3
-2 5 12 5 14 0 19 -2 13 -5z m-2363 -33 c0 -5 -4 -10 -10 -10 -5 0 -10 5 -10
10 0 6 5 10 10 10 6 0 10 -4 10 -10z m2230 6 c0 -3 -4 -8 -10 -11 -5 -3 -10
-1 -10 4 0 6 5 11 10 11 6 0 10 -2 10 -4z m1924 -41 c43 -7 84 -19 89 -24 6
-6 17 -11 23 -11 7 0 39 -16 72 -35 60 -35 134 -119 153 -173 16 -48 36 -181
27 -184 -5 -2 -10 -58 -12 -125 -3 -91 -8 -127 -20 -144 -16 -23 -16 -22 -16
29 0 36 4 54 14 58 10 4 13 19 10 57 -5 58 -6 83 -3 126 2 27 -43 136 -59 143
-4 2 -15 19 -25 39 -11 21 -33 43 -53 52 -19 9 -34 21 -34 26 0 5 -12 14 -27
20 -16 7 -39 18 -53 26 -14 8 -35 15 -47 15 -13 0 -23 4 -23 9 0 5 -9 7 -20 4
-11 -3 -20 -1 -20 5 0 21 -101 48 -215 57 -52 5 -51 5 -35 15 12 8 12 10 -5
10 -17 0 -17 2 -5 10 22 14 193 11 284 -5z m-3144 -27 c0 -9 3 -9 12 0 7 7 17
12 24 12 14 0 24 -69 13 -90 -6 -12 -8 -10 -9 8 0 12 -8 26 -17 29 -10 4 -21
10 -24 15 -3 5 -18 4 -32 -3 -36 -16 -46 -4 -16 20 27 23 49 27 49 9z m480 2
c0 -12 -8 -12 -35 0 -18 8 -17 9 8 9 15 1 27 -3 27 -9z m-487 -67 c-7 -2 -19
-2 -25 0 -7 3 -2 5 12 5 14 0 19 -2 13 -5z m11767 -343 c0 -23 -10 -26 -28 -8
-18 18 -15 28 8 28 13 0 20 -7 20 -20z m-8695 -35 c11 -4 26 -7 33 -6 6 1 12
-3 12 -9 0 -5 -7 -10 -15 -10 -11 0 -15 -11 -15 -39 0 -33 4 -40 21 -43 l21
-3 -20 -25 -20 -25 -25 23 c-13 13 -31 22 -38 20 -10 -2 -15 10 -17 42 -2 24
-9 48 -15 53 -7 5 3 5 21 2 32 -7 33 -6 27 22 -4 15 -3 23 2 17 4 -6 17 -14
28 -19z m-821 -67 c19 -21 18 -64 -2 -64 -9 -1 -34 -4 -54 -8 -34 -7 -36 -6
-31 13 5 19 56 71 69 71 3 0 11 -6 18 -12z m1162 -119 c3 -6 2 -15 -4 -21 -6
-6 -11 -2 -15 11 -5 22 7 29 19 10z m35 -26 c-10 -17 -10 -16 -11 3 0 23 13
41 18 25 2 -6 -1 -18 -7 -28z m-61 -7 c0 -3 -4 -8 -10 -11 -5 -3 -10 -1 -10 4
0 6 5 11 10 11 6 0 10 -2 10 -4z m-693 -174 c-3 -14 2 -32 12 -43 30 -36 30
-62 -2 -86 -34 -26 -52 -21 -36 8 7 13 8 48 3 97 -6 72 -6 76 10 62 11 -9 16
-23 13 -38z m523 -7 c-7 -8 -20 -15 -29 -15 -13 1 -13 3 3 15 26 19 42 19 26
0z m-337 -19 c6 -15 -22 -46 -41 -46 -16 0 -15 6 4 35 18 28 29 31 37 11z
m9057 -76 c0 -5 -5 -10 -11 -10 -5 0 -7 5 -4 10 3 6 8 10 11 10 2 0 4 -4 4
-10z m-9682 -11 c111 17 134 15 183 -21 24 -18 67 -40 94 -49 75 -25 31 -37
-55 -15 -37 10 -111 19 -164 21 -72 2 -102 7 -115 19 -10 9 -32 16 -49 16 -21
0 -32 5 -32 14 0 19 20 25 46 14 14 -7 47 -6 92 1z m9859 -165 c-3 -3 -12 -4
-19 -1 -8 3 -5 6 6 6 11 1 17 -2 13 -5z m-10127 -69 c7 -8 20 -15 30 -15 23 0
102 -58 95 -70 -9 -15 41 -60 68 -60 26 0 65 -24 51 -33 -15 -9 -77 -11 -111
-3 -24 5 -33 13 -33 27 0 11 -4 17 -10 14 -10 -6 -157 62 -166 77 -11 18 7 59
29 68 31 12 33 12 47 -5z m35 5 c3 -5 1 -10 -4 -10 -6 0 -11 5 -11 10 0 6 2
10 4 10 3 0 8 -4 11 -10z m249 -165 c-4 -8 -10 -15 -15 -15 -5 0 -9 7 -9 15 0
8 7 15 15 15 9 0 12 -6 9 -15z m9841 -215 c-3 -5 -12 -10 -18 -10 -7 0 -6 4 3
10 19 12 23 12 15 0z m1054 -76 c12 -19 21 -41 21 -47 0 -7 -11 8 -25 32 -14
23 -25 45 -25 47 0 11 10 0 29 -32z m-21912 -31 c-9 -3 -15 -8 -12 -13 3 -5
-8 -8 -25 -8 -16 1 -30 5 -30 9 0 4 -12 9 -27 11 -16 3 4 4 42 4 39 0 62 -1
52 -3z m43 -39 c0 -22 -4 -25 -27 -22 -35 4 -37 30 -3 39 14 4 26 7 28 8 1 1
2 -11 2 -25z m-120 -4 c0 -5 5 -10 11 -10 20 0 38 -34 39 -72 0 -36 -2 -38
-31 -38 -26 0 -29 -2 -20 -14 7 -8 26 -14 42 -14 17 1 35 -4 41 -10 19 -19 28
-14 28 13 0 24 3 25 55 25 l55 0 0 -45 c0 -25 5 -45 11 -45 6 0 9 -17 8 -42
-4 -47 8 -56 74 -57 20 -1 37 -5 37 -11 0 -5 18 -10 40 -10 22 0 40 5 40 10 0
6 25 10 55 10 43 0 57 4 67 19 13 21 38 17 38 -6 0 -8 5 -11 10 -8 6 4 24 4
40 0 21 -5 30 -12 30 -27 0 -19 -5 -20 -50 -16 -28 3 -53 1 -56 -3 -3 -5 2 -9
10 -9 12 0 16 -10 16 -35 0 -34 1 -35 40 -35 39 0 40 1 40 35 0 24 5 35 15 35
10 0 15 -10 15 -34 0 -19 6 -36 13 -39 20 -7 111 5 119 16 4 7 12 6 22 -2 12
-10 13 -18 5 -33 -6 -11 -8 -27 -5 -35 6 -14 8 -14 25 1 18 16 21 16 59 -3 22
-11 42 -17 46 -14 3 3 15 -2 26 -12 11 -10 30 -23 42 -29 19 -10 21 -18 19
-86 -1 -41 -4 -77 -7 -79 -2 -3 -13 5 -24 17 -22 24 -27 88 -7 95 7 3 0 9 -15
16 -20 7 -28 18 -28 36 0 21 -5 25 -27 25 -19 0 -24 -3 -15 -9 10 -6 12 -25 6
-80 l-7 -72 -31 3 c-22 2 -31 -1 -31 -12 0 -8 8 -14 17 -14 10 1 14 -4 11 -12
-4 -10 -10 -11 -23 -4 -25 13 -60 13 -60 -1 0 -6 11 -20 25 -31 30 -23 34 -58
7 -58 -28 0 -34 11 -15 32 15 17 15 18 0 18 -10 0 -17 -4 -17 -8 0 -5 -20 -13
-45 -19 -42 -10 -45 -9 -40 8 5 14 1 19 -12 19 -17 1 -17 1 0 11 32 19 7 29
-73 29 -53 0 -83 -4 -92 -14 -19 -19 -11 -94 10 -99 10 -3 -2 -5 -25 -6 -24 0
-43 -5 -43 -11 0 -5 -16 -10 -35 -10 -40 0 -46 -17 -15 -45 11 -10 20 -24 20
-32 0 -7 7 -13 15 -13 25 0 19 -47 -7 -53 -13 -2 -31 -8 -40 -12 -11 -4 -18
-3 -18 4 0 6 7 11 15 11 8 0 15 7 15 16 0 9 -6 14 -12 11 -7 -2 -19 3 -26 12
-11 14 -13 11 -9 -16 3 -31 2 -33 -30 -33 -31 0 -33 -2 -33 -35 0 -27 4 -35
18 -35 24 0 101 -42 107 -59 3 -8 1 -17 -5 -21 -16 -10 -24 -67 -10 -75 13 -8
44 30 46 55 2 35 5 39 19 34 12 -5 15 2 15 30 0 20 5 36 10 36 11 0 13 -11 10
-52 -1 -22 3 -28 19 -28 18 0 21 6 21 40 0 39 1 40 35 40 46 0 71 -24 80 -77
7 -44 19 -61 30 -43 10 16 73 12 103 -7 15 -10 38 -28 51 -41 13 -13 34 -28
48 -33 17 -6 23 -15 21 -31 -3 -21 3 -24 62 -33 52 -8 67 -14 75 -32 10 -23
45 -32 45 -13 0 15 36 12 49 -4 17 -20 -11 -41 -37 -27 -23 12 -32 6 -32 -22
0 -16 5 -19 28 -14 33 7 72 -22 72 -54 0 -12 8 -27 17 -34 14 -11 15 -16 5
-28 -17 -20 0 -31 34 -23 17 5 24 12 20 21 -4 10 2 15 17 16 21 0 21 1 2 8
-17 7 -16 9 9 15 17 4 33 3 39 -3 6 -6 7 -11 3 -11 -5 0 3 -9 17 -20 14 -11
32 -20 41 -20 9 0 18 -11 22 -25 6 -23 11 -25 61 -25 47 0 54 -2 43 -14 -6 -8
-10 -25 -8 -38 4 -29 56 -37 92 -13 19 13 29 14 45 5 12 -6 21 -17 21 -25 0
-7 11 -22 25 -33 28 -22 33 -42 9 -42 -8 0 -12 -5 -9 -10 4 -6 12 -10 18 -8 7
1 22 -2 35 -6 16 -5 22 -14 20 -34 -1 -15 1 -33 6 -40 11 -19 37 -14 43 8 10
36 28 21 31 -25 1 -25 -2 -45 -8 -45 -25 0 -6 -19 27 -27 31 -7 39 -14 43 -38
4 -25 12 -32 43 -39 20 -5 37 -13 37 -16 0 -9 -41 -46 -46 -42 -11 7 -34 1
-29 -8 9 -14 48 -13 63 2 9 9 12 9 12 0 0 -9 4 -9 20 0 28 18 47 -2 29 -30
-14 -22 -2 -86 15 -80 13 4 28 -54 17 -65 -5 -5 -18 -4 -31 3 -12 6 -28 9 -36
6 -8 -3 -14 -1 -14 4 0 6 -12 10 -27 10 -31 0 -82 -34 -70 -47 5 -4 12 -1 17
7 7 11 11 11 24 1 8 -7 24 -10 36 -6 14 4 20 2 20 -9 0 -8 8 -19 17 -25 10 -5
15 -12 12 -15 -3 -4 -16 3 -29 14 -25 22 -45 26 -55 10 -3 -5 3 -10 15 -10 12
0 18 -5 15 -10 -3 -6 1 -13 9 -16 28 -11 18 -34 -15 -34 -25 0 -29 3 -24 19 3
12 0 21 -10 25 -8 3 -15 1 -15 -4 0 -14 -16 -12 -32 3 -7 8 -27 17 -43 21 -21
5 -26 4 -15 -3 8 -6 12 -12 10 -14 -8 -7 -68 -37 -75 -37 -3 0 -5 18 -5 40 0
36 -2 40 -18 31 -14 -7 -18 -18 -14 -42 l5 -32 -64 6 c-54 6 -69 4 -97 -13
-39 -24 -72 -26 -72 -5 0 8 -9 15 -20 15 -15 0 -20 7 -20 26 0 20 -4 24 -19
19 -13 -4 -23 2 -35 20 -9 14 -25 25 -37 25 -11 0 -22 7 -25 15 -6 14 -11 13
-41 -5 -39 -23 -50 -20 -64 17 -7 18 -15 24 -29 20 -12 -3 -30 5 -50 24 -16
16 -26 29 -22 29 4 0 8 9 9 19 1 14 -3 18 -13 14 -8 -3 -14 -10 -14 -17 0 -12
-113 -16 -126 -3 -4 4 -16 7 -26 7 -11 0 -17 4 -14 9 3 4 -3 16 -12 25 -16 13
-21 14 -37 2 -10 -7 -27 -11 -38 -8 -16 4 -18 11 -14 38 6 36 -12 60 -38 51
-10 -5 -13 -17 -10 -47 2 -28 0 -40 -8 -37 -15 5 -43 56 -51 94 -8 33 -26 46
-50 37 -17 -7 -86 45 -86 64 0 6 -9 12 -21 12 -12 0 -23 8 -26 20 -7 26 -27
25 -46 -2 l-15 -23 -16 37 c-9 21 -15 41 -14 45 3 14 -37 73 -49 73 -7 0 -17
9 -23 20 -6 11 -16 20 -22 20 -19 0 -48 32 -48 52 0 10 -6 18 -14 18 -7 0 -20
10 -28 22 l-15 22 -44 -21 c-24 -12 -44 -20 -45 -19 -1 0 -4 13 -8 29 -5 23
-3 27 14 27 17 0 20 7 20 40 0 28 -4 40 -14 40 -11 0 -13 10 -9 40 5 34 3 40
-13 41 -17 1 -17 2 -1 6 12 3 17 15 17 39 0 35 -7 39 -52 35 -14 -2 -18 5 -18
29 0 21 -4 30 -12 27 -7 -2 -13 -16 -13 -30 1 -15 -2 -27 -6 -27 -4 0 -5 -10
-2 -22 4 -20 3 -21 -7 -5 -7 11 -24 17 -45 17 -33 0 -35 -2 -35 -35 0 -33 -2
-35 -20 -25 -24 13 -26 46 -4 58 13 7 9 12 -20 26 -22 10 -36 24 -36 35 0 11
-8 22 -17 25 -15 6 -15 8 -3 16 13 8 13 13 1 31 -11 19 -11 23 3 31 25 14 19
23 -24 43 -22 10 -40 22 -40 26 0 4 -9 11 -20 14 -25 8 -26 25 -2 25 25 0 77
51 62 60 -14 9 -6 40 10 40 5 0 10 -9 10 -19 0 -11 5 -23 10 -26 6 -4 10 8 10
29 0 19 -5 38 -11 42 -8 4 -7 9 2 16 11 7 9 8 -4 4 -10 -3 -41 -6 -68 -6 -45
0 -49 -2 -49 -24 0 -13 6 -27 13 -30 10 -5 10 -7 0 -12 -7 -3 -13 -12 -13 -20
0 -8 -7 -14 -15 -14 -8 0 -15 7 -15 16 0 8 -17 32 -38 52 -22 21 -42 44 -45
52 -4 8 -4 0 -1 -17 4 -24 2 -33 -8 -33 -20 0 -38 21 -38 45 0 18 -31 55 -45
55 -3 0 -10 -12 -16 -26 l-10 -27 -22 22 c-13 11 -31 21 -40 21 -9 0 -17 5
-17 11 0 8 11 9 33 5 23 -4 28 -3 17 4 -13 8 -13 11 -1 19 7 5 10 14 7 20 -5
8 -12 7 -22 -4 -9 -8 -19 -15 -24 -15 -11 0 -50 54 -50 69 0 6 -7 11 -16 11
-11 0 -13 -6 -9 -19 5 -15 -1 -24 -24 -35 -35 -19 -50 -20 -87 -6 -26 10 -26
11 -9 30 10 11 15 23 10 28 -4 4 -10 1 -12 -5 -3 -7 -13 -13 -22 -13 -21 0
-79 27 -104 48 -14 13 -24 13 -56 4 -57 -18 -74 -16 -68 7 3 13 -1 21 -14 24
-10 3 -17 1 -16 -3 1 -4 -2 -7 -8 -6 -5 0 -9 4 -8 8 2 4 -6 12 -16 17 -15 9
-20 7 -24 -9 -3 -11 -12 -20 -21 -20 -19 0 -22 16 -4 22 7 3 9 12 5 22 -5 13
-14 17 -29 13 -23 -7 -78 26 -78 46 0 23 -36 37 -72 27 -18 -6 -34 -10 -35
-10 -2 0 -3 11 -3 24 0 21 -6 24 -40 28 -29 2 -40 0 -43 -12 -4 -15 -8 -10
-22 36 -4 12 -12 14 -30 10 -31 -8 -65 23 -66 62 0 15 -4 36 -9 47 -7 18 -8
18 -15 -8 -4 -15 -5 -40 -2 -55 l5 -27 -22 28 c-14 17 -31 27 -49 27 -22 0
-27 4 -27 26 0 21 -4 25 -17 21 -56 -18 -63 -19 -63 -9 0 6 8 13 18 15 9 2 6
3 -8 2 -17 -2 -34 7 -54 27 -22 24 -30 28 -38 17 -6 -10 -7 -7 -3 9 4 13 2 22
-5 22 -6 0 -8 5 -4 11 4 8 9 7 15 -2 6 -10 11 -6 18 14 6 16 11 35 11 43 0 17
30 19 30 2 0 -7 6 -4 12 6 6 11 26 35 45 54 33 32 35 33 58 18 31 -20 49 -20
41 -1 -3 9 0 15 9 15 8 0 15 -4 15 -10 0 -5 5 -10 10 -10 6 0 10 6 8 13 -4 20
12 67 22 67 6 0 19 -9 30 -20 11 -11 21 -17 22 -12 0 4 2 12 3 17 2 6 3 16 4
23 2 20 35 14 49 -9 8 -12 9 -18 3 -14 -6 3 -11 1 -11 -4 0 -17 40 -13 46 4 4
8 17 15 30 15 13 0 24 5 24 11 0 7 9 9 23 6 12 -4 48 -3 79 2 39 5 59 4 62 -3
2 -6 10 -2 19 9 13 17 19 18 36 8 11 -7 21 -8 23 -3 5 14 111 16 116 2 5 -15
119 -16 124 -1 2 6 40 13 88 16 65 4 94 2 124 -11 47 -20 66 -20 80 -2 6 8 25
17 43 21 25 5 34 2 44 -13 12 -20 13 -20 31 2 14 17 19 18 27 7 6 -9 14 -10
22 -5 8 5 32 14 54 19 24 6 40 16 40 25 0 21 30 41 51 33 13 -5 16 -3 11 10
-6 15 3 17 73 17 47 0 80 -4 80 -10z m-690 -26 c0 -8 -5 -12 -10 -9 -6 4 -8
11 -5 16 9 14 15 11 15 -7z m-65 -4 c3 -5 1 -10 -4 -10 -6 0 -11 5 -11 10 0 6
2 10 4 10 3 0 8 -4 11 -10z m-178 -6 c-3 -3 -12 -4 -19 -1 -8 3 -5 6 6 6 11 1
17 -2 13 -5z m403 -14 c0 -5 -4 -10 -9 -10 -6 0 -13 5 -16 10 -3 6 1 10 9 10
9 0 16 -4 16 -10z m-485 -20 c-3 -5 -13 -10 -21 -10 -8 0 -14 5 -14 10 0 6 9
10 21 10 11 0 17 -4 14 -10z m1155 -21 c0 -24 -23 -21 -28 4 -2 10 3 17 12 17
10 0 16 -9 16 -21z m21956 -86 c-5 -5 -36 62 -36 76 1 3 10 -11 21 -32 11 -22
18 -41 15 -44z m-23652 -8 c3 -8 1 -15 -4 -15 -6 0 -10 7 -10 15 0 8 2 15 4
15 2 0 6 -7 10 -15z m-169 -5 c3 -5 1 -10 -4 -10 -6 0 -11 5 -11 10 0 6 2 10
4 10 3 0 8 -4 11 -10z m23832 -32 c-3 -7 -5 -2 -5 12 0 14 2 19 5 13 2 -7 2
-19 0 -25z m-64 -36 c-3 -8 0 -17 6 -22 10 -5 9 -9 -3 -13 -13 -5 -16 1 -16
36 0 28 3 37 9 28 5 -8 7 -21 4 -29z m-21358 18 c3 -5 1 -10 -4 -10 -6 0 -11
5 -11 10 0 6 2 10 4 10 3 0 8 -4 11 -10z m-309 -29 c5 -5 20 -11 34 -14 16 -3
10 -5 -17 -6 -32 -1 -43 3 -43 14 0 17 11 20 26 6z m-2682 -37 c19 -7 20 -13
1 -38 -14 -18 -15 -18 -34 5 -27 34 -11 50 33 33z m24366 -40 c0 -19 -16 -18
-24 2 -11 27 -7 37 9 24 8 -7 15 -19 15 -26z m-24190 16 c0 -5 -18 -10 -40
-10 -22 0 -40 -4 -40 -10 0 -5 -7 -10 -15 -10 -21 0 -19 28 3 33 33 9 92 7 92
-3z m320 -16 c0 -8 -5 -12 -10 -9 -6 4 -8 11 -5 16 9 14 15 11 15 -7z m-460
-4 c0 -5 -5 -10 -11 -10 -5 0 -7 5 -4 10 3 6 8 10 11 10 2 0 4 -4 4 -10z
m24440 1 c0 -5 3 -17 7 -27 4 -11 3 -15 -4 -11 -14 9 -24 47 -12 47 5 0 9 -4
9 -9z m-24342 -22 c-2 -6 -8 -10 -13 -10 -5 0 -11 4 -13 10 -2 6 4 11 13 11 9
0 15 -5 13 -11z m42 -4 c0 -8 -2 -15 -4 -15 -2 0 -6 7 -10 15 -3 8 -1 15 4 15
6 0 10 -7 10 -15z m340 -20 c0 -18 -31 -28 -44 -15 -8 8 -6 15 8 25 21 16 36
11 36 -10z m-250 -35 c0 -5 -12 -10 -26 -10 -14 0 -23 4 -19 10 3 6 15 10 26
10 10 0 19 -4 19 -10z m24167 -12 c-3 -8 -6 -5 -6 6 -1 11 2 17 5 13 3 -3 4
-12 1 -19z m-23697 -88 c0 -5 -2 -10 -4 -10 -3 0 -8 5 -11 10 -3 6 -1 10 4 10
6 0 11 -4 11 -10z m23763 -67 c-7 -2 -13 -12 -13 -20 0 -9 -3 -14 -6 -10 -10
10 4 37 18 36 10 0 10 -2 1 -6z m-20493 -43 c0 -22 -4 -40 -10 -40 -5 0 -10
18 -10 40 0 22 5 40 10 40 6 0 10 -18 10 -40z m-73 -82 c-2 -13 -4 -3 -4 22 0
25 2 35 4 23 2 -13 2 -33 0 -45z m18353 29 c0 -5 -4 -5 -10 -2 -5 3 -10 14
-10 23 0 15 2 15 10 2 5 -8 10 -19 10 -23z m-21150 13 c0 -5 -2 -10 -4 -10 -3
0 -8 5 -11 10 -3 6 -1 10 4 10 6 0 11 -4 11 -10z m88 -75 c-3 -3 -9 2 -12 12
-6 14 -5 15 5 6 7 -7 10 -15 7 -18z m4669 -151 c-3 -3 -12 -4 -19 -1 -8 3 -5
6 6 6 11 1 17 -2 13 -5z m-3997 -94 c0 -12 -27 -12 -55 0 -16 7 -13 9 18 9 20
1 37 -3 37 -9z m21800 -40 c0 -5 -7 -10 -16 -10 -8 0 -12 5 -9 10 3 6 10 10
16 10 5 0 9 -4 9 -10z m-21680 -41 c0 -11 -4 -17 -10 -14 -5 3 -10 13 -10 21
0 8 5 14 10 14 6 0 10 -9 10 -21z m750 11 c12 -8 11 -10 -7 -10 -13 0 -23 5
-23 10 0 13 11 13 30 0z m127 -42 c-3 -7 -5 -2 -5 12 0 14 2 19 5 13 2 -7 2
-19 0 -25z m143 22 c0 -5 -2 -10 -4 -10 -3 0 -8 5 -11 10 -3 6 -1 10 4 10 6 0
11 -4 11 -10z m68 -48 c3 -17 -2 -22 -17 -22 -14 0 -21 6 -21 18 0 38 33 41
38 4z m-51 -14 c-3 -8 -6 -5 -6 6 -1 11 2 17 5 13 3 -3 4 -12 1 -19z m20843
-48 c0 -5 -4 -10 -10 -10 -5 0 -10 5 -10 10 0 6 5 10 10 10 6 0 10 -4 10 -10z
m-1370 -60 c0 -5 -4 -10 -10 -10 -5 0 -10 5 -10 10 0 6 5 10 10 10 6 0 10 -4
10 -10z m1670 -25 c0 -19 -4 -35 -10 -35 -11 0 -13 30 -4 54 10 25 14 19 14
-19z m168 -67 c19 -19 15 -48 -8 -48 -16 0 -20 7 -20 30 0 32 9 37 28 18z
m-411 -124 c-3 -3 -12 -4 -19 -1 -8 3 -5 6 6 6 11 1 17 -2 13 -5z m-20353 -10
c9 -3 16 -15 16 -26 0 -17 -4 -19 -27 -13 -34 8 -47 20 -39 34 8 12 26 14 50
5z m20653 -80 c-3 -3 -12 -4 -19 -1 -8 3 -5 6 6 6 11 1 17 -2 13 -5z m273 -59
c0 -8 -7 -15 -15 -15 -16 0 -20 12 -8 23 11 12 23 8 23 -8z m-15950 -135 c0
-5 -4 -10 -10 -10 -5 0 -10 5 -10 10 0 6 5 10 10 10 6 0 10 -4 10 -10z m102
-29 c32 -16 55 -31 52 -34 -3 -2 21 -8 53 -12 54 -6 72 -17 73 -39 0 -5 -6 -4
-12 2 -7 6 -60 16 -118 23 -58 8 -95 15 -82 17 30 5 28 14 -8 35 -28 17 -40
37 -22 37 4 0 33 -13 64 -29z m15845 -73 c-2 -13 -4 -3 -4 22 0 25 2 35 4 23
2 -13 2 -33 0 -45z m-21767 -15 c0 -13 -4 -23 -10 -23 -5 0 -10 5 -10 12 0 6
-7 20 -16 30 -14 15 -15 20 -4 33 12 15 15 14 26 -7 8 -13 13 -33 14 -45z
m5830 47 c12 -8 11 -10 -7 -10 -13 0 -23 5 -23 10 0 13 11 13 30 0z m-4305
-110 c3 -6 -1 -17 -9 -26 -9 -8 -16 -11 -16 -5 0 6 -7 11 -15 11 -16 0 -20 12
-8 23 10 10 41 8 48 -3z m-772 -347 c-7 -2 -19 -2 -25 0 -7 3 -2 5 12 5 14 0
19 -2 13 -5z m5673 -288 c-16 -14 -35 -25 -41 -25 -7 0 -29 -11 -50 -25 -37
-26 -50 -29 -37 -9 18 26 141 97 152 87 2 -2 -9 -15 -24 -28z m1304 -265 c0
-5 -7 -7 -15 -4 -8 4 -15 8 -15 10 0 2 7 4 15 4 8 0 15 -4 15 -10z m14763
-175 c4 -8 2 -17 -3 -20 -6 -4 -10 3 -10 14 0 25 6 27 13 6z m-12425 -100 c6
-3 12 -8 12 -13 0 -5 -22 -6 -50 -2 -29 4 -54 2 -60 -4 -13 -13 -35 7 -25 23
6 10 85 7 123 -4z m-145 -19 c-1 -6 -21 -15 -45 -21 -24 -7 -52 -15 -63 -19
l-20 -8 20 13 c11 7 22 15 25 19 19 25 88 38 83 16z m177 -31 c0 -8 7 -15 16
-15 9 0 30 -11 48 -25 17 -14 45 -36 61 -50 17 -13 27 -27 23 -31 -7 -6 -63
31 -98 66 -8 8 -26 21 -40 28 -14 7 -36 19 -50 27 l-25 15 33 0 c22 0 32 -5
32 -15z m-340 -25 c22 -7 20 -8 -15 -9 -22 -1 -51 -4 -65 -6 -22 -5 -21 -3 5
9 34 17 40 17 75 6z m-114 -19 c-7 -11 -76 -20 -76 -10 0 9 25 16 58 18 13 0
21 -3 18 -8z m1187 -8 c-18 -2 -48 -2 -65 0 -18 2 -4 4 32 4 36 0 50 -2 33 -4z
m191 -1 c2 -4 -12 -6 -32 -4 -62 6 -69 10 -20 11 26 0 49 -3 52 -7z m-429 -13
c15 -7 11 -8 -18 -5 -22 3 -35 1 -32 -4 3 -6 -1 -7 -9 -4 -9 3 -13 10 -10 15
7 11 43 10 69 -2z m554 -5 c2 -2 -16 -4 -42 -4 -25 0 -49 4 -52 10 -6 9 83 3
94 -6z m-1609 2 c0 -2 -11 -6 -25 -8 -13 -3 -22 -1 -19 3 5 9 44 13 44 5z
m1113 -3 c-7 -2 -19 -2 -25 0 -7 3 -2 5 12 5 14 0 19 -2 13 -5z m577 -8 c23
-8 54 -15 68 -15 14 0 23 -2 20 -5 -3 -3 -35 -3 -72 1 -46 5 -66 11 -66 20 0
17 -2 17 50 -1z m-817 -12 c-7 -2 -19 -2 -25 0 -7 3 -2 5 12 5 14 0 19 -2 13
-5z m947 -13 c0 -5 -4 -10 -10 -10 -5 0 -10 5 -10 10 0 6 5 10 10 10 6 0 10
-4 10 -10z m131 -3 c-6 -8 -8 -17 -4 -20 3 -4 -2 -7 -12 -7 -13 0 -15 3 -6 13
6 8 8 17 4 20 -3 4 2 7 12 7 13 0 15 -3 6 -13z m-1204 -3 c-3 -3 -12 -4 -19
-1 -8 3 -5 6 6 6 11 1 17 -2 13 -5z m1258 -14 c-28 -12 -45 -12 -45 0 0 6 15
10 33 9 27 0 29 -2 12 -9z m465 -70 c9 -6 -2 -11 -33 -15 -35 -5 -50 -4 -62 8
-11 12 -12 17 -2 20 14 6 76 -2 97 -13z m-350 -20 c0 -5 -7 -10 -15 -10 -8 0
-15 5 -15 10 0 6 7 10 15 10 8 0 15 -4 15 -10z m991 -67 c31 -18 40 -39 13
-29 -9 3 -20 6 -25 6 -5 0 -9 6 -9 13 0 9 -10 12 -30 9 -18 -3 -30 0 -30 7 0
17 48 13 81 -6z m-3492 -76 c-15 -12 -79 -45 -79 -42 0 7 75 53 79 49 2 -2 2
-5 0 -7z m-179 -97 c0 -5 -10 -10 -22 -9 -22 0 -22 1 -3 9 11 5 21 9 23 9 1 1
2 -3 2 -9z m13740 -270 c0 -5 -4 -10 -10 -10 -5 0 -10 5 -10 10 0 6 5 10 10
10 6 0 10 -4 10 -10z m70 -61 c0 -5 -10 -9 -21 -9 -18 0 -19 2 -9 15 12 15 30
12 30 -6z m10 -81 c0 -5 -4 -8 -10 -8 -5 0 -10 10 -10 23 0 18 2 19 10 7 5 -8
10 -18 10 -22z m-14968 -80 c-6 -6 -8 -17 -5 -24 3 -8 -1 -14 -11 -14 -19 0
-22 46 -3 53 18 6 30 -4 19 -15z m14978 -288 c21 -22 41 -40 44 -40 3 0 6 19
6 42 0 23 2 39 5 36 3 -3 3 -47 -1 -97 l-7 -91 -38 0 c-28 0 -39 -5 -41 -17
-3 -15 -9 -12 -36 15 -27 29 -36 33 -64 28 -18 -3 -27 -3 -20 0 15 7 16 81 1
86 -15 5 0 36 22 43 10 4 19 13 19 21 0 9 11 14 36 14 28 0 43 -8 74 -40z
m-5661 -66 c2 -2 -45 -4 -105 -3 -70 1 -100 4 -84 9 23 7 179 2 189 -6z m384
-51 c-7 -2 -21 -2 -30 0 -10 3 -4 5 12 5 17 0 24 -2 18 -5z m-706 -9 c-3 -3
-12 -4 -19 -1 -8 3 -5 6 6 6 11 1 17 -2 13 -5z m-94 -11 c-7 -2 -19 -2 -25 0
-7 3 -2 5 12 5 14 0 19 -2 13 -5z m857 -35 c0 -4 -20 -8 -44 -8 -24 0 -46 -4
-48 -9 -1 -5 -21 -11 -43 -13 -22 -1 -38 1 -35 6 3 5 21 11 40 12 19 2 36 8
38 14 4 12 92 10 92 -2z m53 5 c-7 -2 -19 -2 -25 0 -7 3 -2 5 12 5 14 0 19 -2
13 -5z m5047 -33 c18 -12 2 -12 -25 0 -13 6 -15 9 -5 9 8 0 22 -4 30 -9z
m-6203 -6 c-3 -3 -12 -4 -19 -1 -8 3 -5 6 6 6 11 1 17 -2 13 -5z m901 -1 c-10
-2 -26 -2 -35 0 -10 3 -2 5 17 5 19 0 27 -2 18 -5z m-668 -37 c0 -3 -4 -8 -10
-11 -5 -3 -10 -1 -10 4 0 6 5 11 10 11 6 0 10 -2 10 -4z m-5970 -130 c0 -3 -4
-8 -10 -11 -5 -3 -10 -1 -10 4 0 6 5 11 10 11 6 0 10 -2 10 -4z m160 -27 c0
-5 -18 -9 -41 -9 -22 0 -38 4 -35 8 7 11 76 12 76 1z m83 -1 c34 -16 35 -28 2
-28 -14 0 -29 8 -35 20 -12 23 -5 25 33 8z m-197 -6 c-5 -8 -76 -4 -76 4 0 2
18 4 41 4 22 0 38 -4 35 -8z m264 -12 c0 -5 -7 -10 -15 -10 -8 0 -15 5 -15 10
0 6 7 10 15 10 8 0 15 -4 15 -10z m-3231 -102 c-12 -22 -21 -24 -13 -3 4 8 1
21 -5 29 -6 7 -8 16 -4 19 12 13 32 -27 22 -45z m69 -8 c-7 -17 -16 -30 -20
-30 -13 0 -9 18 7 34 8 8 15 23 16 33 0 10 3 13 6 5 2 -6 -1 -26 -9 -42z m-38
-40 c0 -5 -5 -10 -11 -10 -5 0 -7 5 -4 10 3 6 8 10 11 10 2 0 4 -4 4 -10z
m2770 -180 c0 -5 -8 -10 -17 -10 -15 0 -16 2 -3 10 19 12 20 12 20 0z m8555
-80 c3 -5 -1 -10 -10 -10 -9 0 -13 5 -10 10 3 6 8 10 10 10 2 0 7 -4 10 -10z
m-1770 -9 c7 -13 -36 -26 -44 -14 -3 6 -13 13 -21 16 -8 3 2 6 22 6 20 1 39
-3 43 -8z m-6355 -21 c0 -5 -5 -10 -11 -10 -5 0 -7 5 -4 10 3 6 8 10 11 10 2
0 4 -4 4 -10z m8210 -41 c0 -5 -13 3 -30 18 -16 14 -30 28 -30 30 0 3 14 -5
30 -17 17 -12 30 -26 30 -31z m3800 -9 c0 -5 -5 -10 -11 -10 -5 0 -7 5 -4 10
3 6 8 10 11 10 2 0 4 -4 4 -10z m-3810 -14 c0 -2 -7 -6 -15 -10 -8 -3 -15 -1
-15 4 0 6 7 10 15 10 8 0 15 -2 15 -4z m-1787 -21 c1 -5 -6 -11 -15 -13 -11
-2 -18 3 -18 13 0 17 30 18 33 0z m5651 9 c9 -3 16 -15 16 -25 0 -18 -1 -18
-20 1 -28 28 -27 36 4 24z m-3759 -26 c14 -6 25 -15 25 -19 0 -4 10 -10 23
-12 16 -3 14 -5 -9 -6 -17 0 -37 5 -43 13 -7 8 -21 12 -31 9 -19 -5 -27 7 -13
20 9 10 18 9 48 -5z m3742 -50 c-3 -8 -6 -5 -6 6 -1 11 2 17 5 13 3 -3 4 -12
1 -19z m43 -34 c0 -8 -4 -14 -10 -14 -5 0 -10 9 -10 21 0 11 5 17 10 14 6 -3
10 -13 10 -21z m-3130 -144 c0 -13 -11 -13 -30 0 -12 8 -11 10 8 10 12 0 22
-4 22 -10z m2970 -298 c0 -4 -9 -8 -20 -8 -11 0 -20 4 -20 8 0 4 9 8 20 8 11
0 20 -4 20 -8z m260 -53 c0 -11 -7 -19 -17 -19 -13 0 -14 3 -6 11 6 6 9 18 6
27 -4 10 -2 13 5 8 7 -4 12 -16 12 -27z m-270 -25 c0 -8 -4 -12 -10 -9 -5 3
-10 10 -10 16 0 5 5 9 10 9 6 0 10 -7 10 -16z m265 -14 c3 -5 -3 -10 -15 -10
-12 0 -18 5 -15 10 3 6 10 10 15 10 5 0 12 -4 15 -10z m-65 -26 c0 -8 -4 -12
-10 -9 -5 3 -10 10 -10 16 0 5 5 9 10 9 6 0 10 -7 10 -16z m50 -34 c-19 -13
-30 -13 -30 0 0 6 10 10 23 10 18 0 19 -2 7 -10z m96 -157 c-9 -9 -46 33 -46
51 0 16 5 13 25 -14 14 -18 23 -35 21 -37z m-5982 -53 c4 -20 11 -30 24 -30
10 0 24 -6 30 -12 10 -10 15 -10 21 1 7 11 13 9 30 -8 22 -22 51 -28 51 -11 0
6 18 10 40 10 38 0 54 13 28 23 -22 8 7 29 33 25 18 -2 25 -10 27 -30 3 -24 8
-28 35 -29 48 -2 61 1 73 17 14 17 31 18 36 2 3 -9 9 -8 22 4 9 10 23 15 31
12 9 -4 15 0 15 10 0 18 15 22 25 6 3 -5 21 -10 38 -11 18 0 26 -3 19 -6 -10
-4 -10 -8 -1 -19 15 -18 43 -18 59 1 7 8 23 15 35 15 18 0 22 -4 18 -19 -7
-29 28 -58 68 -57 25 1 33 5 31 17 -1 12 6 16 29 17 18 0 49 4 70 7 34 6 39 4
39 -12 0 -29 -11 -35 -31 -17 -16 15 -20 14 -48 -2 -26 -15 -31 -25 -31 -56 0
-31 4 -38 20 -38 17 0 20 7 20 40 0 22 5 40 10 40 6 0 10 -23 10 -52 0 -40 3
-49 12 -40 21 21 28 13 28 -28 0 -41 21 -57 34 -25 3 10 19 15 46 15 30 0 40
4 40 16 0 9 7 14 17 12 24 -4 28 -27 6 -35 -10 -4 -23 -12 -29 -18 -17 -16
-46 -75 -37 -75 4 0 -2 -6 -13 -14 -18 -14 -18 -15 -1 -21 21 -9 50 1 42 15
-3 5 -1 10 4 10 6 0 11 -4 11 -10 0 -5 18 -10 40 -10 36 0 40 3 40 25 0 23 -4
25 -40 25 -36 0 -40 3 -40 25 0 25 15 30 78 28 7 -1 12 13 12 38 0 32 3 39 20
39 17 0 20 -7 20 -39 0 -22 -4 -41 -9 -43 -5 -1 -11 -26 -13 -54 -5 -69 -20
-86 -74 -83 -24 2 -49 -3 -58 -10 -14 -12 -20 -11 -38 5 -21 19 -21 19 -16 -3
4 -14 2 -20 -7 -17 -12 5 -33 -14 -34 -31 0 -5 -7 -12 -16 -13 -10 -2 -30 -18
-45 -35 -23 -26 -31 -29 -41 -20 -7 7 -14 23 -16 35 -5 30 -8 32 -45 22 -42
-12 -45 -27 -7 -41 35 -13 31 -33 -7 -33 -16 0 -24 6 -24 16 0 9 -7 22 -16 29
-15 10 -15 13 0 27 20 21 21 48 1 48 -8 0 -18 12 -21 26 -4 14 -9 22 -13 16
-3 -5 -20 -17 -38 -26 -35 -18 -153 -23 -153 -6 0 6 18 10 40 10 49 0 52 17 7
47 -48 33 -77 22 -77 -28 0 -33 -3 -39 -20 -39 -12 0 -31 -12 -44 -27 -21 -24
-26 -26 -41 -13 -10 8 -34 13 -61 11 -35 -2 -44 1 -44 13 0 9 -4 16 -10 16 -5
0 -10 18 -10 40 0 34 -3 40 -21 40 -20 0 -21 -4 -17 -49 4 -41 3 -47 -9 -36
-7 8 -13 21 -13 30 0 14 -8 16 -42 13 -24 -3 -51 -8 -62 -13 -14 -6 -17 -4
-14 11 2 11 11 18 21 18 9 -1 17 4 17 12 0 8 -9 14 -20 14 -11 0 -20 7 -20 15
0 8 -4 15 -9 15 -5 0 -16 -7 -25 -15 -21 -21 -35 -19 -47 9 -6 13 -31 32 -57
43 l-46 20 32 8 c19 4 32 13 32 22 0 10 -6 13 -16 9 -9 -3 -27 -6 -40 -6 -18
0 -24 -6 -25 -22 l0 -23 -11 23 c-7 13 -24 26 -40 29 -44 9 -35 33 12 33 32 0
40 4 40 18 0 10 9 25 20 35 11 9 17 23 14 32 -4 10 0 15 10 15 9 0 16 -4 16
-10 0 -5 6 -10 14 -10 11 0 13 10 9 40 -5 36 -3 40 16 40 11 0 21 -4 21 -9 0
-5 9 -11 20 -14 15 -4 20 0 20 15 0 12 -7 26 -17 33 -9 7 -13 17 -9 23 12 20
23 13 30 -18z m56 4 c0 -17 -22 -14 -28 4 -2 7 3 12 12 12 9 0 16 -7 16 -16z
m385 6 c3 -5 -1 -10 -10 -10 -9 0 -13 5 -10 10 3 6 8 10 10 10 2 0 7 -4 10
-10z m2245 -21 c0 -10 -4 -19 -10 -19 -5 0 -10 -11 -10 -25 0 -22 4 -25 35
-25 22 0 38 -6 41 -15 4 -8 12 -15 20 -15 8 0 14 -7 14 -15 0 -8 8 -15 19 -15
22 0 45 -25 36 -40 -3 -5 -13 -10 -21 -10 -22 0 -17 -8 26 -50 40 -38 40 -39
40 -114 0 -73 -1 -76 -24 -76 -16 0 -26 -7 -30 -22 -4 -18 -8 -20 -18 -10 -6
6 -21 12 -32 12 -24 1 -56 22 -56 38 0 5 -7 12 -15 16 -21 8 -19 44 3 49 9 3
0 5 -20 6 -52 1 -55 17 -5 26 l42 8 -50 8 c-69 12 -75 8 -75 -49 0 -59 9 -70
32 -40 12 17 20 20 28 12 19 -19 -10 -56 -37 -49 -17 4 -21 2 -17 -10 9 -22
-6 -19 -27 6 -26 30 -55 21 -51 -16 2 -35 -11 -61 -27 -51 -6 4 -11 20 -11 37
0 29 -13 39 -25 19 -10 -17 -44 -11 -57 10 -9 14 -24 20 -50 20 -21 0 -38 -4
-38 -10 0 -5 -18 -10 -40 -10 -33 0 -40 3 -40 20 0 17 -7 20 -40 20 l-40 0 0
-42 c0 -23 -3 -38 -7 -35 -3 4 -6 20 -5 36 1 29 0 29 -76 38 -58 8 -66 11 -34
12 35 1 42 4 42 21 0 11 7 20 15 20 12 0 15 15 15 75 0 60 3 75 15 75 22 0 21
95 -1 104 -9 4 -23 1 -30 -5 -11 -9 -14 -7 -14 11 0 26 -23 22 -29 -5 -2 -10
-13 -26 -25 -36 -22 -19 -20 -21 32 -32 16 -4 22 -1 22 13 0 10 -6 21 -12 23
-7 3 -3 6 10 6 21 1 22 -2 22 -79 l0 -80 -30 0 c-28 0 -30 -2 -30 -40 0 -33
-3 -40 -20 -40 -11 0 -20 -4 -20 -8 0 -5 -19 -17 -41 -28 -41 -18 -42 -18 -59
4 -10 12 -26 22 -35 22 -13 0 -15 -7 -9 -35 6 -36 -14 -125 -29 -125 -4 0 -6
4 -3 9 3 5 -1 14 -9 21 -21 17 -19 30 5 30 18 0 20 7 20 75 0 63 -2 73 -16 68
-8 -3 -13 -12 -10 -19 4 -10 -3 -14 -24 -14 -22 0 -29 -5 -32 -22 -3 -20 -4
-21 -20 -5 -9 9 -21 17 -27 17 -5 0 -15 8 -20 18 -9 14 -10 11 -11 -15 0 -31
-2 -33 -35 -33 -37 0 -43 8 -23 28 9 9 5 12 -19 12 -19 0 -33 6 -37 16 -4 10
-13 13 -26 9 -11 -4 -20 -2 -20 4 0 6 -7 8 -15 5 -10 -4 -13 -13 -10 -24 4
-14 -1 -19 -23 -22 -16 -2 -38 -1 -48 3 -11 4 -14 8 -8 8 6 1 14 30 18 67 8
73 -1 94 -40 94 -26 0 -29 7 -13 30 8 13 12 12 26 -7 8 -13 25 -23 37 -23 32
0 66 11 66 22 0 21 45 68 64 67 17 -1 18 -2 4 -6 -25 -6 -26 -83 -1 -83 23 0
53 29 53 51 0 10 -8 23 -17 28 -14 8 -8 10 27 10 33 0 40 -3 25 -9 -18 -7 -19
-8 -2 -15 9 -4 17 -13 17 -21 0 -10 12 -14 40 -14 33 0 40 3 40 19 0 13 9 21
29 26 22 5 28 11 24 24 -3 13 2 20 17 24 16 4 20 2 16 -9 -4 -10 2 -14 19 -14
13 0 26 -4 29 -9 8 -13 76 -6 119 12 25 11 37 22 37 36 0 12 7 21 15 21 8 0
15 -5 15 -11 0 -5 5 -7 12 -3 9 6 9 9 0 12 -25 8 -10 22 24 22 39 0 53 -10 71
-52 14 -32 28 -36 37 -11 6 15 9 14 19 -7 9 -17 22 -26 44 -28 26 -3 32 -8 35
-30 l4 -27 12 28 c10 23 17 27 51 27 28 0 43 -5 50 -17 9 -17 10 -17 16 0 9
21 55 23 55 2 0 -21 27 -19 39 3 8 13 10 8 11 -25 0 -24 5 -43 10 -43 6 0 10
-18 10 -40 0 -24 -5 -40 -12 -40 -6 0 -9 -2 -6 -5 3 -4 17 -3 32 1 22 5 26 11
26 45 0 21 5 39 10 39 6 0 10 33 10 80 0 47 4 80 10 80 6 0 10 8 10 18 0 10 3
22 6 25 11 10 24 -3 24 -24z m-720 -30 c0 -5 -11 -9 -25 -9 -17 0 -25 -6 -25
-17 0 -14 -2 -15 -12 -4 -10 11 -10 14 0 18 6 3 12 10 12 17 0 9 9 12 25 8 14
-2 25 -8 25 -13z m-182 -12 c2 -10 -3 -17 -12 -17 -10 0 -16 9 -16 21 0 24 23
21 28 -4z m-571 -20 c-2 -7 -22 -10 -48 -9 -45 2 -87 -14 -61 -25 6 -2 11 -14
11 -26 -1 -17 -2 -18 -6 -4 -2 9 -13 17 -24 17 -23 0 -24 9 -1 35 14 17 26 20
65 17 31 -3 47 0 47 8 0 6 5 8 11 5 5 -4 8 -12 6 -18z m-127 -87 c0 -20 -5
-30 -15 -30 -16 0 -19 17 -9 44 10 26 24 18 24 -14z m215 -111 c-3 -4 2 -25
12 -46 11 -22 17 -54 15 -75 -3 -35 -6 -38 -34 -38 -21 0 -39 10 -60 33 -28
29 -32 30 -37 14 -6 -16 -9 -17 -19 -4 -19 23 17 57 62 57 29 0 36 4 36 20 0
17 -7 20 -40 20 -22 0 -40 5 -40 10 0 6 18 10 39 10 34 0 40 3 46 28 l7 27 9
-23 c5 -13 7 -28 4 -33z m4795 11 c0 -5 -5 -10 -11 -10 -5 0 -7 5 -4 10 3 6 8
10 11 10 2 0 4 -4 4 -10z m-3090 -50 c0 -21 -24 -28 -35 -10 -8 14 3 30 21 30
8 0 14 -9 14 -20z m3085 11 c3 -5 1 -12 -5 -16 -5 -3 -10 1 -10 9 0 18 6 21
15 7z m-4655 -92 c0 -11 28 -9 63 6 12 5 17 3 17 -8 0 -8 -12 -17 -28 -20 -16
-3 -34 -17 -42 -31 -16 -31 -16 -31 -57 -6 -23 14 -33 27 -33 45 0 23 4 25 40
25 23 0 40 -5 40 -11z m-180 -49 c0 -5 -7 -10 -15 -10 -8 0 -15 5 -15 10 0 6
7 10 15 10 8 0 15 -4 15 -10z m445 -10 c0 -7 -6 -15 -12 -17 -8 -3 -13 4 -13
17 0 13 5 20 13 18 6 -3 12 -11 12 -18z m42 14 c-3 -3 -12 -4 -19 -1 -8 3 -5
6 6 6 11 1 17 -2 13 -5z m-1117 -23 c0 -13 -27 -21 -45 -15 -25 10 -17 24 15
24 17 0 30 -4 30 -9z m331 -18 c-8 -15 -10 -15 -11 -2 0 17 10 32 18 25 2 -3
-1 -13 -7 -23z m-882 -10 c0 -25 -1 -25 -8 -8 -5 11 -7 23 -4 28 8 14 13 7 12
-20z m2627 12 c-21 -16 -32 -13 -21 4 3 6 14 11 23 11 15 -1 15 -2 -2 -15z
m-1091 -45 c3 -5 1 -10 -4 -10 -6 0 -11 5 -11 10 0 6 2 10 4 10 3 0 8 -4 11
-10z m89 -9 c4 -5 -7 -12 -24 -16 -16 -4 -32 -11 -35 -16 -4 -5 -25 -8 -48 -8
l-42 1 39 8 c21 4 41 12 45 17 12 20 56 29 65 14z m1126 -101 c0 -5 -4 -10
-10 -10 -5 0 -10 5 -10 10 0 6 5 10 10 10 6 0 10 -4 10 -10z m1654 -729 c3 -5
28 -14 56 -21 36 -9 50 -17 50 -29 0 -20 79 -80 97 -74 7 3 15 -7 19 -21 3
-14 10 -23 15 -20 6 3 7 -11 3 -35 -6 -39 -5 -41 18 -41 14 0 31 -7 38 -15 7
-8 17 -12 22 -9 5 4 8 -4 6 -17 -3 -22 -7 -24 -62 -22 -36 1 -65 8 -75 17 -10
9 -26 16 -37 16 -10 0 -28 7 -38 15 -11 8 -30 15 -43 15 -24 0 -74 43 -86 74
-5 12 -13 16 -23 12 -20 -8 -46 12 -37 27 3 6 5 32 4 58 -2 43 1 49 26 63 33
18 40 19 47 7z m-84 -88 c-1 -24 -2 -26 -11 -10 -5 9 -7 22 -4 27 10 17 15 11
15 -17z m-9023 -7405 c-3 -7 -5 -2 -5 12 0 14 2 19 5 13 2 -7 2 -19 0 -25z
m-927 -962 c0 -3 -4 -8 -10 -11 -5 -3 -10 -1 -10 4 0 6 5 11 10 11 6 0 10 -2
10 -4z m1243 -2634 c4 -32 2 -50 -3 -47 -6 4 -10 29 -10 57 0 64 5 60 13 -10z
m14 -94 c-3 -7 -5 -2 -5 12 0 14 2 19 5 13 2 -7 2 -19 0 -25z m20 -110 c-2
-13 -4 -5 -4 17 -1 22 1 32 4 23 2 -10 2 -28 0 -40z m18 -95 c-9 -76 -17 -61
-8 18 3 35 8 58 11 51 2 -7 1 -38 -3 -69z m22 -65 c-2 -13 -4 -5 -4 17 -1 22
1 32 4 23 2 -10 2 -28 0 -40z m3 -69 c0 -11 -4 -17 -10 -14 -5 3 -10 13 -10
21 0 8 5 14 10 14 6 0 10 -9 10 -21z m39 -49 c0 -9 -4 -8 -9 5 -5 11 -9 27 -9
35 0 9 4 8 9 -5 5 -11 9 -27 9 -35z m11 -51 c0 -5 -4 -9 -10 -9 -5 0 -10 7
-10 16 0 8 5 12 10 9 6 -3 10 -10 10 -16z"/>
<path d="M9781 26084 c0 -11 3 -14 6 -6 3 7 2 16 -1 19 -3 4 -6 -2 -5 -13z"/>
<path d="M4640 19774 c0 -8 5 -12 10 -9 6 3 10 10 10 16 0 5 -4 9 -10 9 -5 0
-10 -7 -10 -16z"/>
<path d="M3808 19703 c6 -2 18 -2 25 0 6 3 1 5 -13 5 -14 0 -19 -2 -12 -5z"/>
<path d="M5016 19614 c-9 -22 -8 -24 9 -24 8 0 15 9 15 20 0 24 -15 27 -24 4z"/>
<path d="M3200 19574 c0 -8 5 -12 10 -9 6 3 10 10 10 16 0 5 -4 9 -10 9 -5 0
-10 -7 -10 -16z"/>
<path d="M5033 19505 c-3 -9 -3 -19 1 -22 3 -4 6 1 6 10 0 8 6 18 13 20 9 4 9
6 -1 6 -7 1 -15 -6 -19 -14z"/>
<path d="M3260 19480 c-7 -4 -10 -15 -7 -24 7 -18 16 -20 36 -7 12 8 12 11 -1
24 -9 9 -20 12 -28 7z"/>
<path d="M3340 19420 c0 -5 5 -10 10 -10 6 0 10 5 10 10 0 6 -4 10 -10 10 -5
0 -10 -4 -10 -10z"/>
<path d="M5265 19420 c3 -5 8 -10 11 -10 2 0 4 5 4 10 0 6 -5 10 -11 10 -5 0
-7 -4 -4 -10z"/>
<path d="M5470 19426 c0 -3 7 -12 16 -20 17 -18 114 -23 114 -6 0 6 -18 10
-40 10 -22 0 -40 5 -40 10 0 6 -11 10 -25 10 -14 0 -25 -2 -25 -4z"/>
<path d="M5642 19380 c0 -19 2 -27 5 -17 2 9 2 25 0 35 -3 9 -5 1 -5 -18z"/>
<path d="M5586 19250 c-10 -10 -15 -23 -11 -29 9 -16 25 -13 25 4 0 8 8 15 19
15 10 0 24 7 31 15 11 13 8 15 -16 14 -16 0 -37 -9 -48 -19z"/>
<path d="M5680 19230 c0 -5 5 -10 10 -10 6 0 10 5 10 10 0 6 -4 10 -10 10 -5
0 -10 -4 -10 -10z"/>
<path d="M5610 19117 c0 -10 8 -17 18 -17 9 0 13 4 7 8 -5 4 -13 11 -17 16 -5
5 -8 2 -8 -7z"/>
<path d="M5230 19100 c0 -5 11 -10 25 -10 14 0 25 5 25 10 0 6 -11 10 -25 10
-14 0 -25 -4 -25 -10z"/>
<path d="M5155 19040 c-3 -5 1 -10 9 -10 9 0 16 5 16 10 0 6 -4 10 -9 10 -6 0
-13 -4 -16 -10z"/>
<path d="M5200 19030 c0 -17 -7 -20 -40 -20 -33 0 -40 -3 -40 -20 0 -17 7 -20
40 -20 29 0 40 4 40 15 0 10 10 15 33 15 24 0 35 6 44 25 11 24 1 36 -12 15
-3 -5 -15 -10 -26 -10 -10 0 -19 5 -19 10 0 6 -4 10 -10 10 -5 0 -10 -9 -10
-20z"/>
<path d="M5147 18893 c-15 -14 -6 -23 22 -23 34 0 49 15 25 24 -21 8 -39 8
-47 -1z"/>
<path d="M5095 18880 c3 -5 1 -10 -5 -10 -6 0 -8 -4 -5 -10 11 -18 35 -11 35
10 0 11 -7 20 -16 20 -8 0 -12 -4 -9 -10z"/>
<path d="M4964 18685 c-4 -8 -4 -22 0 -30 4 -12 10 -13 31 -3 14 6 25 14 25
18 0 4 -11 12 -25 18 -21 10 -27 9 -31 -3z"/>
<path d="M4856 18654 c-20 -19 -20 -19 2 -22 40 -6 26 -32 -18 -32 -35 0 -40
-3 -40 -23 0 -28 72 -66 78 -41 2 8 10 14 18 14 10 0 14 12 14 40 0 28 -4 40
-14 40 -8 0 -16 10 -18 22 -3 22 -3 22 -22 2z"/>
<path d="M4961 18614 c0 -11 3 -14 6 -6 3 7 2 16 -1 19 -3 4 -6 -2 -5 -13z"/>
<path d="M5080 18620 c0 -5 5 -10 10 -10 6 0 10 5 10 10 0 6 -4 10 -10 10 -5
0 -10 -4 -10 -10z"/>
<path d="M5568 18623 c6 -2 18 -2 25 0 6 3 1 5 -13 5 -14 0 -19 -2 -12 -5z"/>
<path d="M5600 18594 c0 -17 22 -14 28 4 2 7 -3 12 -12 12 -9 0 -16 -7 -16
-16z"/>
<path d="M5080 18559 c0 -6 -12 -10 -27 -9 -46 3 -48 1 -23 -25 31 -33 46 -32
59 6 13 39 13 39 1 39 -5 0 -10 -5 -10 -11z"/>
<path d="M5121 18443 c0 -25 1 -26 9 -8 12 27 12 35 0 35 -5 0 -10 -12 -9 -27z"/>
<path d="M5120 18364 c0 -14 -4 -23 -10 -19 -5 3 -10 4 -10 1 0 -2 -3 -11 -6
-20 -4 -11 -1 -16 10 -16 9 0 16 -8 16 -17 1 -26 35 -67 49 -58 9 5 8 11 -4
25 -8 9 -16 32 -17 51 -1 52 -7 79 -18 79 -6 0 -10 -12 -10 -26z"/>
<path d="M5920 18379 c0 -5 5 -7 10 -4 6 3 10 8 10 11 0 2 -4 4 -10 4 -5 0
-10 -5 -10 -11z"/>
<path d="M6320 18190 c0 -5 4 -10 9 -10 6 0 13 5 16 10 3 6 -1 10 -9 10 -9 0
-16 -4 -16 -10z"/>
<path d="M6480 18085 c0 -8 5 -15 10 -15 6 0 10 7 10 15 0 8 -4 15 -10 15 -5
0 -10 -7 -10 -15z"/>
<path d="M6340 17534 c0 -25 29 -49 43 -35 8 8 8 11 -1 11 -7 0 -12 9 -12 20
0 11 -7 20 -15 20 -8 0 -15 -7 -15 -16z"/>
<path d="M22880 13550 c0 -5 7 -10 15 -10 8 0 15 -7 15 -15 0 -8 5 -15 10 -15
16 0 12 15 -8 33 -21 19 -32 22 -32 7z"/>
<path d="M23150 13540 c0 -5 5 -10 10 -10 6 0 10 5 10 10 0 6 -4 10 -10 10 -5
0 -10 -4 -10 -10z"/>
<path d="M23388 13493 c7 -3 16 -2 19 1 4 3 -2 6 -13 5 -11 0 -14 -3 -6 -6z"/>
<path d="M23429 13493 c-1 -5 -2 -15 -3 -23 -1 -11 -10 -14 -32 -12 -24 3 -33
-1 -37 -17 -2 -11 -2 -22 1 -25 11 -12 40 -6 46 9 3 8 12 15 21 15 10 0 15 10
15 30 0 26 -8 43 -11 23z"/>
<path d="M23186 13441 c-4 -7 -5 -15 -2 -18 9 -9 19 4 14 18 -4 11 -6 11 -12
0z"/>
<path d="M22721 13365 c0 -17 -6 -36 -13 -43 -9 -9 -9 -15 -1 -23 9 -9 13 -3
18 24 4 19 5 43 2 54 -3 11 -5 6 -6 -12z"/>
<path d="M23520 13360 c0 -5 5 -10 11 -10 5 0 7 5 4 10 -3 6 -8 10 -11 10 -2
0 -4 -4 -4 -10z"/>
<path d="M22625 13340 c3 -5 8 -10 11 -10 2 0 4 5 4 10 0 6 -5 10 -11 10 -5 0
-7 -4 -4 -10z"/>
<path d="M23520 13330 c0 -5 18 -10 40 -10 22 0 40 5 40 10 0 6 -18 10 -40 10
-22 0 -40 -4 -40 -10z"/>
<path d="M25360 13495 c0 -8 5 -15 10 -15 6 0 10 7 10 15 0 8 -4 15 -10 15 -5
0 -10 -7 -10 -15z"/>
<path d="M25020 13454 c-6 -14 -10 -32 -10 -39 0 -8 -10 -17 -23 -20 -21 -6
-23 -12 -23 -81 -1 -55 3 -74 13 -74 7 0 13 3 14 8 3 36 10 80 15 92 4 12 9 9
20 -10 l15 -25 -5 31 c-3 17 2 43 10 59 15 30 11 85 -7 85 -5 0 -14 -12 -19
-26z"/>
<path d="M24160 13446 c0 -9 5 -16 10 -16 6 0 10 4 10 9 0 6 -4 13 -10 16 -5
3 -10 -1 -10 -9z"/>
<path d="M25380 13445 c0 -8 9 -15 20 -15 11 0 20 7 20 15 0 8 -9 15 -20 15
-11 0 -20 -7 -20 -15z"/>
<path d="M24705 13440 c-3 -5 -1 -10 4 -10 6 0 11 5 11 10 0 6 -2 10 -4 10 -3
0 -8 -4 -11 -10z"/>
<path d="M25120 13442 c0 -7 -6 -12 -14 -12 -7 0 -17 -8 -20 -17 -4 -10 -13
-30 -21 -45 -12 -21 -13 -31 -4 -52 7 -14 15 -26 19 -26 9 0 26 41 38 89 l8
35 13 -32 c7 -18 17 -32 20 -32 7 0 41 64 41 75 0 3 -13 5 -28 5 -15 0 -33 5
-40 12 -9 9 -12 9 -12 0z"/>
<path d="M24305 13430 c-3 -5 -1 -10 4 -10 6 0 11 5 11 10 0 6 -2 10 -4 10 -3
0 -8 -4 -11 -10z"/>
<path d="M24390 13430 c-8 -5 -11 -12 -7 -17 5 -4 11 -3 15 3 4 6 14 14 22 17
13 5 13 5 0 6 -8 0 -22 -3 -30 -9z"/>
<path d="M24240 13385 c0 -10 10 -15 33 -15 30 1 31 1 13 15 -25 19 -46 19
-46 0z"/>
<path d="M24320 13360 c0 -5 -8 -10 -17 -11 -15 0 -15 -2 2 -8 12 -5 23 -4 27
3 11 16 10 26 -2 26 -5 0 -10 -4 -10 -10z"/>
<path d="M24160 13341 c0 -17 34 -22 49 -6 14 13 12 15 -17 15 -18 0 -32 -4
-32 -9z"/>
<path d="M24360 13335 c-14 -16 -10 -47 6 -52 7 -2 13 11 16 32 4 37 -2 44
-22 20z"/>
<path d="M24605 13340 c3 -5 13 -10 21 -10 8 0 14 5 14 10 0 6 -9 10 -21 10
-11 0 -17 -4 -14 -10z"/>
<path d="M25120 13326 c0 -9 5 -16 10 -16 6 0 10 4 10 9 0 6 -4 13 -10 16 -5
3 -10 -1 -10 -9z"/>
<path d="M25058 13243 c12 -2 32 -2 45 0 12 2 2 4 -23 4 -25 0 -35 -2 -22 -4z"/>
<path d="M25418 13234 c-8 -8 3 -44 13 -44 5 0 9 11 9 25 0 24 -10 32 -22 19z"/>
<path d="M27180 12221 c0 -6 5 -13 10 -16 6 -3 10 1 10 9 0 9 -4 16 -10 16 -5
0 -10 -4 -10 -9z"/>
<path d="M11158 26943 c7 -3 16 -2 19 1 4 3 -2 6 -13 5 -11 0 -14 -3 -6 -6z"/>
<path d="M10965 26459 c-160 -35 -308 -59 -377 -60 l-53 -2 65 -9 c36 -5 75
-9 88 -9 12 0 32 1 45 1 12 0 31 1 42 1 53 3 71 2 88 -5 10 -5 17 -4 17 2 0 6
-8 13 -17 15 -10 3 1 5 24 6 23 0 45 6 48 12 4 6 14 8 24 5 11 -4 11 -2 -4 10
-13 11 -15 15 -4 11 9 -3 41 1 71 8 33 7 61 9 69 4 23 -14 29 -10 29 16 0 30
8 30 -155 -6z"/>
<path d="M10488 26403 c6 -2 18 -2 25 0 6 3 1 5 -13 5 -14 0 -19 -2 -12 -5z"/>
<path d="M10930 26390 c-24 -8 -23 -8 8 -9 20 -1 31 3 27 9 -3 6 -7 10 -8 9
-1 -1 -13 -5 -27 -9z"/>
<path d="M7970 26209 c0 -5 5 -7 10 -4 6 3 10 8 10 11 0 2 -4 4 -10 4 -5 0
-10 -5 -10 -11z"/>
<path d="M7905 26190 c-3 -5 -1 -10 4 -10 6 0 11 5 11 10 0 6 -2 10 -4 10 -3
0 -8 -4 -11 -10z"/>
<path d="M16218 25743 c7 -3 16 -2 19 1 4 3 -2 6 -13 5 -11 0 -14 -3 -6 -6z"/>
<path d="M16298 25718 c12 -12 25 -18 29 -14 4 4 -1 14 -11 22 -31 22 -43 17
-18 -8z"/>
<path d="M16382 25610 c0 -14 2 -19 5 -12 2 6 2 18 0 25 -3 6 -5 1 -5 -13z"/>
<path d="M16408 25505 c-4 -6 0 -41 8 -79 8 -37 12 -72 9 -76 -3 -5 -1 -11 5
-15 12 -8 12 10 -3 105 -7 41 -15 70 -19 65z"/>
<path d="M16456 25252 c-4 -18 -5 -36 -2 -39 11 -12 17 5 14 39 l-3 33 -9 -33z"/>
<path d="M7201 25234 c0 -11 3 -14 6 -6 3 7 2 16 -1 19 -3 4 -6 -2 -5 -13z"/>
<path d="M7140 25230 c0 -5 -18 -27 -41 -50 -22 -22 -36 -40 -31 -40 16 0 82
68 82 85 0 8 -2 15 -5 15 -3 0 -5 -4 -5 -10z"/>
<path d="M7167 25213 c-4 -3 -7 -11 -7 -17 0 -6 5 -5 12 2 6 6 9 14 7 17 -3 3
-9 2 -12 -2z"/>
<path d="M7090 25130 c0 -5 5 -10 10 -10 6 0 10 5 10 10 0 6 -4 10 -10 10 -5
0 -10 -4 -10 -10z"/>
<path d="M7018 25105 c-34 -30 -35 -33 -3 -31 14 0 23 6 21 11 -2 6 1 18 6 28
11 22 9 21 -24 -8z"/>
<path d="M16555 25099 c-4 -6 -5 -12 -2 -15 2 -3 7 2 10 11 7 17 1 20 -8 4z"/>
<path d="M16606 24931 c-4 -7 -5 -15 -2 -18 9 -9 19 4 14 18 -4 11 -6 11 -12
0z"/>
<path d="M16600 24870 c0 -5 7 -10 15 -10 8 0 15 5 15 10 0 6 -7 10 -15 10 -8
0 -15 -4 -15 -10z"/>
<path d="M10085 24771 c-3 -5 -1 -12 5 -16 5 -3 10 1 10 9 0 18 -6 21 -15 7z"/>
<path d="M10121 24564 c0 -11 3 -14 6 -6 3 7 2 16 -1 19 -3 4 -6 -2 -5 -13z"/>
<path d="M10130 24344 c0 -8 5 -12 10 -9 6 4 8 11 5 16 -9 14 -15 11 -15 -7z"/>
<path d="M15165 23870 c-3 -5 1 -10 9 -10 9 0 16 5 16 10 0 6 -4 10 -9 10 -6
0 -13 -4 -16 -10z"/>
<path d="M14895 23791 c-3 -6 -3 -15 0 -21 3 -5 1 -10 -4 -10 -14 0 -14 -37
-1 -45 6 -4 15 7 21 24 6 17 17 31 25 31 8 0 14 5 14 10 0 6 -4 10 -9 10 -5 0
-16 3 -24 6 -8 3 -18 1 -22 -5z"/>
<path d="M14790 23758 c0 -4 14 -8 30 -8 17 0 30 2 30 4 0 2 -13 6 -30 8 -16
3 -30 1 -30 -4z"/>
<path d="M14932 23730 c0 -19 2 -27 5 -17 2 9 2 25 0 35 -3 9 -5 1 -5 -18z"/>
<path d="M14825 23720 c-8 -14 3 -30 21 -30 8 0 14 9 14 20 0 21 -24 28 -35
10z"/>
<path d="M14668 23698 c-18 -6 -28 -17 -28 -29 0 -13 -7 -19 -24 -19 -14 0
-28 5 -31 10 -11 18 -25 11 -25 -12 0 -18 -2 -20 -10 -8 -8 12 -10 12 -16 -3
-3 -9 -12 -17 -20 -17 -8 0 -14 -5 -14 -11 0 -6 -7 -8 -16 -5 -9 4 -14 1 -12
-6 4 -11 -33 -58 -47 -58 -4 0 -5 7 -1 15 11 31 -29 -7 -84 -78 -59 -76 -73
-100 -47 -78 10 7 17 10 17 5 0 -4 14 14 31 40 16 27 33 46 36 42 3 -3 -1 -14
-10 -24 -23 -25 -21 -35 6 -26 12 3 19 3 15 -1 -4 -5 -3 -14 2 -20 12 -15 -3
-65 -20 -65 -5 0 -10 -7 -10 -15 0 -17 25 -20 35 -5 3 6 13 10 22 10 8 0 26 9
40 20 15 12 43 21 67 21 30 2 34 3 14 6 -16 2 -28 9 -28 15 0 6 13 8 34 5 20
-3 45 0 61 9 15 8 34 14 41 14 8 0 14 9 14 21 0 15 -4 19 -16 15 -11 -4 -14
-1 -12 12 2 10 11 16 22 14 9 -2 23 2 31 8 7 6 17 10 21 9 5 -1 26 -1 47 0 26
1 37 6 37 16 0 8 8 15 19 15 23 0 40 19 40 45 0 11 3 36 6 55 l6 35 -16 -27
c-17 -30 -34 -35 -53 -16 -17 17 -15 41 3 35 19 -8 31 11 16 26 -7 7 -11 7
-11 1 0 -6 -16 -8 -36 -6 -24 3 -39 0 -45 -9 -6 -10 -10 -9 -16 7 -7 18 -12
20 -35 12z"/>
<path d="M14880 23644 c0 -8 5 -12 10 -9 6 4 8 11 5 16 -9 14 -15 11 -15 -7z"/>
<path d="M15246 23574 c-4 -9 -4 -19 -1 -22 3 -3 5 0 5 6 0 7 6 12 14 12 8 0
18 5 21 10 3 6 -3 10 -13 10 -11 0 -23 -7 -26 -16z"/>
<path d="M15307 23573 c-4 -3 -7 -13 -7 -21 0 -12 3 -12 15 -2 8 7 15 16 15
21 0 11 -14 12 -23 2z"/>
<path d="M15184 23533 c-15 -3 -21 -12 -21 -29 0 -34 12 -38 36 -12 21 21 28
49 14 47 -5 -1 -18 -4 -29 -6z"/>
<path d="M14680 23470 c0 -5 5 -10 10 -10 6 0 10 5 10 10 0 6 -4 10 -10 10 -5
0 -10 -4 -10 -10z"/>
<path d="M15250 23440 c0 -5 5 -10 10 -10 6 0 10 5 10 10 0 6 -4 10 -10 10 -5
0 -10 -4 -10 -10z"/>
<path d="M14960 23390 c0 -5 5 -10 10 -10 6 0 10 5 10 10 0 6 -4 10 -10 10 -5
0 -10 -4 -10 -10z"/>
<path d="M14893 23347 c-25 -18 -28 -24 -17 -35 8 -7 24 -10 39 -6 19 5 25 13
25 35 0 35 -7 36 -47 6z"/>
<path d="M14512 23338 c2 -12 10 -23 18 -23 22 0 19 39 -3 43 -15 3 -18 -1
-15 -20z"/>
<path d="M14400 23260 c0 -5 6 -10 14 -10 8 0 18 5 21 10 3 6 -3 10 -14 10
-12 0 -21 -4 -21 -10z"/>
<path d="M23057 22998 c-17 -44 -17 -50 -2 -44 17 6 24 -6 29 -49 2 -17 11
-32 22 -36 27 -11 44 -10 44 1 0 6 -7 10 -15 10 -8 0 -15 5 -15 11 0 6 7 9 15
5 8 -3 15 -1 15 5 0 5 -7 12 -15 15 -10 4 -13 13 -10 24 4 14 -1 20 -24 25
-20 4 -31 13 -34 28 -3 19 -4 20 -10 5z"/>
<path d="M23178 22863 c12 -2 30 -2 40 0 9 3 -1 5 -23 4 -22 0 -30 -2 -17 -4z"/>
<path d="M13552 22760 c0 -19 2 -27 5 -17 2 9 2 25 0 35 -3 9 -5 1 -5 -18z"/>
<path d="M19802 22715 c2 -5 9 -21 15 -35 42 -91 53 -124 53 -159 0 -27 4 -40
12 -38 7 1 15 -11 19 -28 5 -22 7 -24 8 -8 1 30 -28 140 -50 188 -16 35 -67
106 -57 80z"/>
<path d="M23638 22703 c7 -3 16 -2 19 1 4 3 -2 6 -13 5 -11 0 -14 -3 -6 -6z"/>
<path d="M24315 22540 c-4 -6 6 -10 22 -10 22 0 25 2 13 10 -19 12 -27 12 -35
0z"/>
<path d="M24830 22320 c0 -6 7 -10 15 -10 8 0 15 2 15 4 0 2 -7 6 -15 10 -8 3
-15 1 -15 -4z"/>
<path d="M24900 22231 c0 -12 5 -21 10 -21 6 0 10 6 10 14 0 8 -4 18 -10 21
-5 3 -10 -3 -10 -14z"/>
<path d="M14584 22148 c-8 -12 21 -38 43 -38 7 0 13 11 13 25 0 20 -5 25 -24
25 -14 0 -28 -5 -32 -12z"/>
<path d="M14550 22130 c6 -11 12 -20 14 -20 2 0 2 9 -1 20 -3 11 -9 20 -15 20
-5 0 -4 -9 2 -20z"/>
<path d="M14717 22076 c-4 -10 0 -12 14 -9 10 3 16 9 13 14 -8 13 -21 11 -27
-5z"/>
<path d="M14370 21954 c0 -14 3 -14 15 -4 8 7 15 14 15 16 0 2 -7 4 -15 4 -8
0 -15 -7 -15 -16z"/>
<path d="M14480 21915 c0 -27 6 -30 29 -16 12 8 12 12 2 25 -19 23 -31 20 -31
-9z"/>
<path d="M13412 21898 c6 -18 28 -21 28 -4 0 9 -7 16 -16 16 -9 0 -14 -5 -12
-12z"/>
<path d="M14636 21895 c4 -8 7 -15 9 -15 1 0 8 7 15 15 10 13 9 15 -8 15 -15
0 -20 -5 -16 -15z"/>
<path d="M14877 21894 c3 -9 8 -11 12 -6 3 6 22 12 41 15 30 3 28 4 -12 5 -39
2 -46 -1 -41 -14z"/>
<path d="M25126 21878 c6 -21 44 -68 44 -55 0 9 -41 77 -47 77 -2 0 -1 -10 3
-22z"/>
<path d="M14913 21873 c-24 -9 -14 -33 13 -33 32 0 66 18 59 31 -6 9 -51 11
-72 2z"/>
<path d="M13215 21840 c-3 -5 -1 -10 4 -10 6 0 11 5 11 10 0 6 -2 10 -4 10 -3
0 -8 -4 -11 -10z"/>
<path d="M25185 21790 c3 -5 8 -10 11 -10 2 0 4 5 4 10 0 6 -5 10 -11 10 -5 0
-7 -4 -4 -10z"/>
<path d="M13820 21640 c0 -5 5 -10 10 -10 6 0 10 5 10 10 0 6 -4 10 -10 10 -5
0 -10 -4 -10 -10z"/>
<path d="M13410 21611 c0 -5 6 -14 14 -20 16 -13 32 2 21 19 -8 12 -35 13 -35
1z"/>
<path d="M13900 21600 c0 -5 5 -10 10 -10 6 0 10 5 10 10 0 6 -4 10 -10 10 -5
0 -10 -4 -10 -10z"/>
<path d="M13800 21574 c0 -8 5 -12 10 -9 6 3 10 10 10 16 0 5 -4 9 -10 9 -5 0
-10 -7 -10 -16z"/>
<path d="M13950 21580 c0 -5 7 -10 16 -10 8 0 12 5 9 10 -3 6 -10 10 -16 10
-5 0 -9 -4 -9 -10z"/>
<path d="M25440 21279 c0 -5 5 -7 10 -4 6 3 10 8 10 11 0 2 -4 4 -10 4 -5 0
-10 -5 -10 -11z"/>
<path d="M25530 21146 c0 -13 25 -33 49 -41 22 -7 23 -7 4 12 -10 11 -20 18
-22 16 -2 -1 -10 2 -18 8 -7 6 -13 8 -13 5z"/>
<path d="M25761 20914 c0 -11 3 -14 6 -6 3 7 2 16 -1 19 -3 4 -6 -2 -5 -13z"/>
<path d="M20365 20890 c-8 -13 -31 -119 -45 -205 -8 -55 -4 -100 15 -160 4
-14 -4 -32 -30 -63 -31 -35 -36 -47 -29 -70 9 -35 5 -70 -11 -103 -20 -37 -43
-143 -51 -232 -5 -62 -4 -77 7 -77 25 1 119 129 119 163 0 7 19 59 42 116 36
91 45 105 74 117 47 20 73 17 119 -11 51 -31 60 -31 73 3 16 45 30 136 23 154
-6 16 -9 16 -50 -2 -24 -11 -65 -20 -91 -20 -43 0 -49 3 -58 28 -18 46 -25
103 -26 197 -1 68 -6 100 -21 130 -20 40 -47 56 -60 35z"/>
<path d="M25780 20880 c0 -5 5 -10 11 -10 5 0 7 5 4 10 -3 6 -8 10 -11 10 -2
0 -4 -4 -4 -10z"/>
<path d="M25942 20749 c2 -7 10 -15 17 -17 8 -3 12 1 9 9 -2 7 -10 15 -17 17
-8 3 -12 -1 -9 -9z"/>
<path d="M25970 20700 c0 -6 7 -13 15 -16 8 -4 15 -13 15 -22 0 -12 3 -13 11
-5 8 8 8 17 0 32 -12 22 -41 29 -41 11z"/>
<path d="M26030 20671 c0 -17 12 -41 21 -41 5 0 9 11 9 25 0 16 -6 25 -15 25
-8 0 -15 -4 -15 -9z"/>
<path d="M26051 20611 c-16 -10 -6 -31 14 -31 7 0 16 6 19 13 3 6 3 2 0 -10
-3 -15 0 -23 13 -26 17 -4 17 -5 1 -6 -10 0 -18 -8 -18 -16 0 -19 75 -21 84
-2 4 6 4 2 2 -10 -4 -20 -2 -21 16 -12 12 6 17 14 12 18 -5 3 -16 20 -24 36
-13 29 -14 29 -18 7 -3 -23 -4 -23 -23 -6 -23 21 -25 38 -3 30 10 -4 14 -1 12
6 -5 15 -68 22 -87 9z"/>
<path d="M26195 20489 c-4 -6 -4 -13 -1 -16 3 -4 6 -1 6 7 0 10 3 10 15 0 13
-11 14 -10 9 4 -7 18 -20 21 -29 5z"/>
<path d="M26271 20403 c11 -24 25 -43 30 -43 11 0 -1 24 -31 60 -20 24 -20 24
1 -17z"/>
<path d="M26320 20352 c0 -10 27 -42 36 -42 8 0 4 7 -16 30 -11 13 -20 18 -20
12z"/>
<path d="M26580 20033 c20 -27 135 -76 153 -66 11 7 -54 62 -80 69 -13 3 -23
10 -23 15 0 5 -16 9 -36 9 l-35 0 21 -27z"/>
<path d="M6917 19284 c3 -8 14 -14 24 -14 10 0 19 6 19 14 0 8 -10 14 -24 14
-17 0 -23 -5 -19 -14z"/>
<path d="M6882 19226 c0 -34 1 -35 39 -34 23 0 39 5 39 12 0 21 -24 43 -51 50
-25 5 -27 4 -27 -28z m58 -11 c7 -8 9 -15 6 -15 -4 0 -14 7 -22 15 -9 8 -11
15 -6 15 5 0 15 -7 22 -15z"/>
<path d="M6720 19090 c0 -22 25 -18 34 6 3 9 -1 14 -14 14 -13 0 -20 -7 -20
-20z"/>
<path d="M26570 18980 c-12 -8 -10 -10 8 -10 13 0 20 4 17 10 -7 12 -6 12 -25
0z"/>
<path d="M26320 18939 c0 -6 -8 -8 -19 -4 -22 7 -34 -6 -25 -29 10 -25 32 -19
49 14 9 17 11 30 5 30 -5 0 -10 -5 -10 -11z"/>
<path d="M26970 18710 c0 -5 5 -10 11 -10 5 0 7 5 4 10 -3 6 -8 10 -11 10 -2
0 -4 -4 -4 -10z"/>
<path d="M7205 18640 c-3 -5 1 -10 9 -10 9 0 16 5 16 10 0 6 -4 10 -9 10 -6 0
-13 -4 -16 -10z"/>
<path d="M27041 18614 c-1 -21 7 -38 25 -55 l27 -24 -19 35 c-10 19 -22 44
-25 55 -6 16 -7 13 -8 -11z"/>
<path d="M27042 18528 c2 -6 10 -14 16 -16 7 -2 10 2 6 12 -7 18 -28 22 -22 4z"/>
<path d="M27080 18511 c0 -6 5 -13 10 -16 6 -3 10 1 10 9 0 9 -4 16 -10 16 -5
0 -10 -4 -10 -9z"/>
<path d="M27033 18486 c0 -9 4 -16 9 -16 4 0 8 -18 8 -40 l0 -40 50 1 c28 1
50 3 50 4 0 2 -6 17 -14 36 -13 30 -14 31 -20 11 -16 -48 -44 -17 -36 38 1 12
-1 12 -11 3 -10 -10 -15 -9 -24 4 -11 14 -12 14 -12 -1z"/>
<path d="M27120 18365 c0 -14 34 -14 38 0 1 6 -7 11 -18 11 -11 1 -20 -4 -20
-11z"/>
<path d="M27160 18331 c0 -5 5 -13 10 -16 6 -3 10 -2 10 4 0 5 -4 13 -10 16
-5 3 -10 2 -10 -4z"/>
<path d="M27230 18180 c0 -5 5 -10 11 -10 5 0 7 5 4 10 -3 6 -8 10 -11 10 -2
0 -4 -4 -4 -10z"/>
<path d="M27240 18074 c0 -8 5 -12 10 -9 6 4 8 11 5 16 -9 14 -15 11 -15 -7z"/>
<path d="M27301 18024 c0 -11 3 -14 6 -6 3 7 2 16 -1 19 -3 4 -6 -2 -5 -13z"/>
<path d="M27310 17969 c0 -6 9 -22 20 -36 24 -31 26 -23 5 17 -16 31 -25 38
-25 19z"/>
<path d="M27200 17869 c0 -35 3 -39 25 -39 16 0 25 -6 25 -15 0 -8 7 -15 15
-15 8 0 15 7 15 15 0 8 4 15 8 15 5 0 9 7 9 16 0 15 -2 15 -13 0 -10 -14 -14
-15 -20 -4 -14 21 -12 59 3 54 7 -3 13 -1 13 4 0 5 -18 8 -40 8 -40 0 -40 -1
-40 -39z"/>
<path d="M27360 17863 c0 -5 5 -14 12 -21 9 -9 5 -12 -19 -12 -39 0 -50 -24
-20 -45 21 -15 22 -14 28 12 4 16 7 20 8 11 0 -10 6 -17 13 -15 6 1 13 -7 15
-18 10 -54 15 -65 28 -65 8 0 15 9 15 20 0 11 -4 20 -9 20 -5 0 -12 13 -16 30
-4 16 -12 33 -18 37 -7 5 -12 17 -12 27 0 11 -6 21 -12 24 -7 2 -13 0 -13 -5z"/>
<path d="M27370 17760 c0 -5 5 -10 11 -10 5 0 7 5 4 10 -3 6 -8 10 -11 10 -2
0 -4 -4 -4 -10z"/>
<path d="M27445 17680 c3 -5 8 -10 11 -10 2 0 4 5 4 10 0 6 -5 10 -11 10 -5 0
-7 -4 -4 -10z"/>
<path d="M27440 17650 c0 -5 4 -11 10 -15 5 -3 7 -12 4 -19 -3 -9 4 -15 20
-18 28 -6 36 6 11 16 -8 3 -15 12 -15 20 0 7 -7 16 -15 20 -8 3 -15 1 -15 -4z"/>
<path d="M27510 17461 c0 -11 4 -22 9 -25 5 -4 7 4 3 16 -3 14 -2 19 6 14 7
-4 12 -2 12 3 0 6 -7 11 -15 11 -8 0 -15 -9 -15 -19z"/>
<path d="M27920 16585 c0 -5 5 -17 10 -25 5 -8 10 -10 10 -5 0 6 -5 17 -10 25
-5 8 -10 11 -10 5z"/>
<path d="M28040 16240 c0 -5 5 -10 11 -10 5 0 7 5 4 10 -3 6 -8 10 -11 10 -2
0 -4 -4 -4 -10z"/>
<path d="M28120 15941 c0 -6 5 -13 10 -16 6 -3 10 1 10 9 0 9 -4 16 -10 16 -5
0 -10 -4 -10 -9z"/>
<path d="M28180 15720 c0 -5 5 -10 11 -10 5 0 7 5 4 10 -3 6 -8 10 -11 10 -2
0 -4 -4 -4 -10z"/>
<path d="M28256 15355 c-3 -9 -6 -26 -5 -38 1 -14 4 -9 9 13 9 37 7 52 -4 25z"/>
<path d="M28321 15244 c0 -11 3 -14 6 -6 3 7 2 16 -1 19 -3 4 -6 -2 -5 -13z"/>
<path d="M28260 15210 c0 -11 7 -20 15 -20 17 0 18 2 9 24 -9 23 -24 20 -24
-4z"/>
<path d="M28322 15060 c0 -14 2 -19 5 -12 2 6 2 18 0 25 -3 6 -5 1 -5 -13z"/>
<path d="M23870 14987 c0 -3 15 -10 32 -16 18 -6 28 -7 23 -2 -12 10 -55 25
-55 18z"/>
<path d="M28420 14800 c0 -5 5 -10 11 -10 5 0 7 5 4 10 -3 6 -8 10 -11 10 -2
0 -4 -4 -4 -10z"/>
<path d="M24320 14761 c0 -5 9 -13 20 -16 11 -3 20 -10 20 -14 0 -4 11 -13 25
-19 50 -23 20 12 -37 43 -16 9 -28 11 -28 6z"/>
<path d="M28444 14695 c-3 -8 -1 -27 4 -42 10 -27 10 -26 11 15 1 43 -5 54
-15 27z"/>
<path d="M23003 14636 c-17 -10 -20 -15 -11 -24 14 -14 48 -16 48 -3 0 5 3 16
6 25 7 19 -11 20 -43 2z"/>
<path d="M28419 14640 c-9 -22 9 -50 31 -50 11 0 20 -6 20 -14 0 -8 4 -17 8
-20 5 -3 6 8 4 25 -3 22 -9 29 -27 29 -17 0 -25 7 -27 23 -3 16 -5 18 -9 7z"/>
<path d="M24755 14460 c3 -5 11 -10 16 -10 6 0 7 5 4 10 -3 6 -11 10 -16 10
-6 0 -7 -4 -4 -10z"/>
<path d="M28500 14441 c0 -5 5 -13 10 -16 6 -3 10 -2 10 4 0 5 -4 13 -10 16
-5 3 -10 2 -10 -4z"/>
<path d="M24835 14420 c27 -12 43 -12 25 0 -8 5 -22 9 -30 9 -10 0 -8 -3 5 -9z"/>
<path d="M24995 14370 c-3 -5 3 -10 15 -10 12 0 18 5 15 10 -3 6 -10 10 -15
10 -5 0 -12 -4 -15 -10z"/>
<path d="M28571 14134 c0 -11 3 -14 6 -6 3 7 2 16 -1 19 -3 4 -6 -2 -5 -13z"/>
<path d="M28636 13907 c3 -10 9 -15 12 -12 3 3 0 11 -7 18 -10 9 -11 8 -5 -6z"/>
<path d="M28650 13782 c0 -5 7 -16 16 -23 14 -12 16 -11 13 5 -4 20 -29 35
-29 18z"/>
<path d="M28694 13635 c-7 -17 4 -37 17 -30 12 8 12 45 -1 45 -6 0 -13 -7 -16
-15z"/>
<path d="M28725 13590 c3 -5 8 -10 11 -10 2 0 4 5 4 10 0 6 -5 10 -11 10 -5 0
-7 -4 -4 -10z"/>
<path d="M28761 13455 c1 -11 5 -31 9 -45 8 -24 8 -24 9 5 0 17 -4 37 -9 45
-8 12 -10 11 -9 -5z"/>
<path d="M28880 12704 c0 -8 5 -12 10 -9 6 4 8 11 5 16 -9 14 -15 11 -15 -7z"/>
<path d="M28952 12530 c0 -14 2 -19 5 -12 2 6 2 18 0 25 -3 6 -5 1 -5 -13z"/>
</g>
</svg>
